
<svg width="30px" height="29px" viewBox="162 425 30 29" version="1.1" xmlns="http://www.w3.org/2000/svg" xmlns:xlink="http://www.w3.org/1999/xlink">
    <g id="Group-17" stroke="none" stroke-width="1" fill="none" fill-rule="evenodd" transform="translate(162.000000, 425.000000)">
        <path d="M6,7.633 C8.247,8.317 10.07,8.511 10.229,8.045 C10.404,7.535 8.522,6.427 6,5.541 L6,4.301 C6,4.025 5.776,3.801 5.5,3.801 C5.224,3.801 5,4.025 5,4.301 L5,5.213 C2.753,4.529 0.931,4.335 0.77,4.801 C0.594,5.312 2.478,6.419 5,7.305 L5,10.764 L6,10.957 L6,7.633 L6,7.633 Z" id="Shape" fill="#000000"></path>
        <path d="M5,26.033 L2.223,27.885 C1.993,28.038 1.931,28.348 2.084,28.578 C2.181,28.723 2.339,28.801 2.501,28.801 C2.596,28.801 2.692,28.774 2.777,28.717 L5.5,26.902 L8.223,28.717 C8.309,28.774 8.405,28.801 8.5,28.801 C8.661,28.801 8.82,28.723 8.916,28.578 C9.069,28.348 9.008,28.038 8.777,27.885 L6,26.033 L6,21.139 L5,20.947 L5,26.033 L5,26.033 Z" id="Shape" fill="#000000"></path>
        <path d="M6,11.975 L5,11.783 L1.937,11.192 L1.748,12.173 L2.729,12.362 L1.592,18.254 L0.61,18.065 L0.421,19.045 L5,19.929 L6,20.121 L7.001,20.314 C7.001,20.309 7,20.305 7,20.3 C7,17.097 8.897,14.335 11.622,13.058 L6,11.975 L6,11.975 Z" id="Shape" fill="#000000"></path>
        <path d="M25,26.033 L25,20.947 L24,21.139 L24,26.033 L21.223,27.885 C20.994,28.038 20.931,28.348 21.084,28.578 C21.181,28.723 21.339,28.801 21.501,28.801 C21.596,28.801 21.692,28.774 21.777,28.717 L24.5,26.902 L27.223,28.717 C27.309,28.774 27.405,28.801 27.5,28.801 C27.661,28.801 27.82,28.723 27.916,28.578 C28.069,28.348 28.008,28.038 27.777,27.885 L25,26.033 L25,26.033 Z" id="Shape" fill="#000000"></path>
        <path d="M25,5.305 C27.522,4.419 29.405,3.312 29.229,2.801 C29.07,2.335 27.247,2.53 25,3.213 L25,1.301 C25,1.025 24.776,0.801 24.5,0.801 C24.224,0.801 24,1.025 24,1.301 L24,3.541 C21.479,4.427 19.596,5.535 19.771,6.045 C19.931,6.511 21.753,6.316 24,5.633 L24,10.957 L25,10.764 L25,5.305 L25,5.305 Z" id="Shape" fill="#000000"></path>
        <path d="M29.577,19.045 L29.388,18.065 L28.407,18.254 L27.27,12.362 L28.252,12.173 L28.064,11.192 L25,11.782 L24,11.974 L18.378,13.058 C21.104,14.335 23,17.097 23,20.3 C23,20.305 22.999,20.309 22.999,20.314 L24,20.121 L25,19.929 L29.577,19.045 L29.577,19.045 Z" id="Shape" fill="#000000"></path>
        <path d="M21.883,21.549 C21.944,21.21 21.98,20.863 21.989,20.51 C21.992,20.44 22,20.371 22,20.301 C22,17.696 20.573,15.427 18.462,14.222 C18.391,14.181 18.32,14.141 18.247,14.103 C17.959,13.952 17.656,13.823 17.346,13.712 C16.999,13.588 16.641,13.489 16.271,13.422 C15.859,13.346 15.435,13.301 15,13.301 C14.565,13.301 14.142,13.346 13.729,13.422 C13.359,13.489 13.002,13.588 12.654,13.712 C12.344,13.822 12.042,13.951 11.753,14.103 C11.681,14.141 11.61,14.181 11.539,14.222 C9.427,15.427 8,17.696 8,20.301 C8,20.371 8.009,20.44 8.011,20.51 C8.022,20.863 8.057,21.21 8.118,21.549 C8.466,23.48 9.602,25.133 11.186,26.166 L10.863,27.135 L10.527,28.143 C10.439,28.405 10.581,28.688 10.842,28.776 C10.895,28.794 10.948,28.801 11,28.801 C11.21,28.801 11.404,28.668 11.475,28.459 L11.758,27.607 L12.076,26.654 C12.967,27.065 13.955,27.3 15,27.3 C16.046,27.3 17.034,27.065 17.925,26.654 L18.242,27.607 L18.526,28.459 C18.595,28.668 18.791,28.801 19,28.801 C19.052,28.801 19.105,28.793 19.158,28.776 C19.42,28.688 19.561,28.405 19.474,28.143 L19.138,27.135 L18.815,26.166 C20.398,25.133 21.535,23.479 21.883,21.549 L21.883,21.549 Z M17.3878569,25.2472542 C16.6646124,25.5983349 15.8561185,25.8 14.9999583,25.8 C14.1428815,25.8 13.3362209,25.5974182 12.6111431,25.2472542 C12.3278952,25.1097552 12.0593139,24.9502564 11.8053992,24.7687578 C10.7594905,24.0189302 9.99041295,22.9152719 9.66958205,21.6319482 C9.59166597,21.3202839 9.54033303,21.0003697 9.51833319,20.6694555 C9.51008326,20.5466231 9.49908334,20.4247074 9.49908334,20.3000417 C9.49908334,18.5602215 10.3149105,17.0083166 11.5808176,15.9999909 C12.180313,15.5224112 12.8815577,15.1713305 13.6451353,14.976082 C14.0805486,14.8660828 14.5315452,14.801 14.9999583,14.801 C15.4683714,14.801 15.9202847,14.8660828 16.3538647,14.976082 C17.1174423,15.1713305 17.8196036,15.5224112 18.4181824,15.9999909 C19.6840895,17.0083166 20.4999167,18.5602215 20.4999167,20.3000417 C20.4999167,20.4256241 20.4889167,20.5475398 20.4806668,20.6694555 C20.4595836,20.999453 20.407334,21.3202839 20.329418,21.6319482 C20.008587,22.9152719 19.2385929,24.0189302 18.1945175,24.7687578 C17.9415194,24.9511731 17.6711048,25.1106719 17.3878569,25.2472542 L17.3878569,25.2472542 Z M15.9222043,22.2116011 C15.6427901,22.3472356 15.3304412,22.4251458 14.9996771,22.4251458 C14.6685588,22.4251458 14.3569181,22.3468815 14.0767957,22.2116011 C13.9673673,22.1584805 13.8636051,22.0968607 13.7655091,22.0267415 C13.3614386,21.7370573 13.0643176,21.3106762 12.9403696,20.8148842 C12.9102679,20.6944776 12.8904362,20.5708837 12.8819369,20.4430402 C12.8787497,20.3955858 12.8745,20.3484856 12.8745,20.3003229 C12.8745,19.6281706 13.1896821,19.0286164 13.6787455,18.6390656 C13.9103512,18.4545601 14.1812661,18.3189256 14.4762624,18.2434944 C14.6444775,18.2009979 14.818713,18.1758542 14.9996771,18.1758542 C15.1806412,18.1758542 15.3552308,18.2009979 15.5227376,18.2434944 C15.8177339,18.3189256 16.0890029,18.4545601 16.3202545,18.6390656 C16.8093179,19.0286164 17.1245,19.6281706 17.1245,20.3003229 C17.1245,20.3488397 17.1202503,20.39594 17.1170631,20.4430402 C17.1089179,20.5705296 17.0887321,20.6944776 17.0586304,20.8148842 C16.9346824,21.3106762 16.6372072,21.7370573 16.233845,22.0267415 C16.1361032,22.0972148 16.0316327,22.1588347 15.9222043,22.2116011 L15.9222043,22.2116011 Z" id="Shape" fill="#000000"></path>
    </g>
</svg>
