<svg width="28px" height="28px" viewBox="28 0 28 28" version="1.1" xmlns="http://www.w3.org/2000/svg" xmlns:xlink="http://www.w3.org/1999/xlink">
    <defs></defs>
    <g id="Group-18" stroke="none" stroke-width="1" fill="none" fill-rule="evenodd" transform="translate(28.000000, 0.000000)">
        <path d="M11.6083333,27.7083333 C10.7916667,27.5625 10.2375,26.775 10.3833333,25.9583333 L10.3833333,25.9583333 C10.5291667,25.1416667 11.3166667,24.5875 12.1333333,24.7333333 L12.1333333,24.7333333 C12.95,24.8791667 13.5041667,25.6666667 13.3583333,26.4833333 L13.3583333,26.4833333 C13.2416667,27.2125 12.6,27.7375 11.8708333,27.7375 L11.8708333,27.7375 C11.7833333,27.7375 11.6958333,27.7375 11.6083333,27.7083333 L11.6083333,27.7083333 Z M14.6708333,26.4833333 C14.525,25.6666667 15.0791667,24.8791667 15.8958333,24.7333333 L15.8958333,24.7333333 C16.7125,24.5875 17.5,25.1416667 17.6458333,25.9583333 L17.6458333,25.9583333 C17.7916667,26.775 17.2375,27.5625 16.4208333,27.7083333 L16.4208333,27.7083333 L16.4208333,27.7083333 L16.4208333,27.7083333 C16.3333333,27.7375 16.2458333,27.7375 16.1583333,27.7375 L16.1583333,27.7375 C15.4583333,27.7375 14.8166667,27.2125 14.6708333,26.4833333 L14.6708333,26.4833333 Z M7.05833333,26.075 L7.05833333,26.075 L7.05833333,26.075 C6.32916667,25.6666667 6.09583333,24.7333333 6.50416667,24.0333333 L6.50416667,24.0333333 C6.9125,23.3041667 7.84583333,23.0708333 8.54583333,23.4791667 L8.54583333,23.4791667 C9.275,23.8875 9.50833333,24.8208333 9.1,25.5208333 L9.1,25.5208333 C8.8375,25.9875 8.3125,26.2791667 7.7875,26.2791667 L7.7875,26.2791667 C7.55416667,26.2791667 7.29166667,26.1916667 7.05833333,26.075 L7.05833333,26.075 Z M18.9,25.5208333 C18.4916667,24.7916667 18.725,23.8875 19.4541667,23.4791667 L19.4541667,23.4791667 C20.1833333,23.0708333 21.0875,23.3041667 21.4958333,24.0333333 L21.4958333,24.0333333 C21.9041667,24.7625 21.6708333,25.6666667 20.9416667,26.075 L20.9416667,26.075 L20.9416667,26.075 L20.9416667,26.075 C20.7083333,26.2208333 20.4458333,26.2791667 20.1833333,26.2791667 L20.1833333,26.2791667 C19.6875,26.25 19.1916667,25.9875 18.9,25.5208333 L18.9,25.5208333 Z M3.35416667,22.9541667 C2.82916667,22.3125 2.8875,21.3791667 3.52916667,20.825 L3.52916667,20.825 C4.17083333,20.3 5.10416667,20.3583333 5.65833333,21 L5.65833333,21 C6.18333333,21.6416667 6.125,22.575 5.48333333,23.1291667 L5.48333333,23.1291667 C5.19166667,23.3625 4.84166667,23.4791667 4.52083333,23.4791667 L4.52083333,23.4791667 C4.08333333,23.5083333 3.64583333,23.3041667 3.35416667,22.9541667 L3.35416667,22.9541667 Z M22.5458333,23.1291667 C21.9041667,22.6041667 21.8166667,21.6416667 22.3708333,21 L22.3708333,21 C22.8958333,20.3583333 23.8583333,20.2708333 24.5,20.825 L24.5,20.825 C25.1416667,21.35 25.2291667,22.3125 24.675,22.9541667 L24.675,22.9541667 L24.675,22.9541667 L24.675,22.9541667 C24.3833333,23.3041667 23.9458333,23.4791667 23.5083333,23.4791667 L23.5083333,23.4791667 C23.1583333,23.4791667 22.8375,23.3625 22.5458333,23.1291667 L22.5458333,23.1291667 Z M0.933333333,18.7833333 C0.641666667,17.9958333 1.05,17.15 1.8375,16.8583333 L1.8375,16.8583333 C2.625,16.5666667 3.47083333,16.975 3.7625,17.7625 L3.7625,17.7625 C4.05416667,18.55 3.64583333,19.3958333 2.85833333,19.6875 L2.85833333,19.6875 C2.68333333,19.7458333 2.50833333,19.775 2.33333333,19.775 L2.33333333,19.775 C1.72083333,19.775 1.1375,19.3958333 0.933333333,18.7833333 L0.933333333,18.7833333 Z M25.1416667,19.6583333 C24.3541667,19.3666667 23.9458333,18.5208333 24.2375,17.7333333 L24.2375,17.7333333 C24.5291667,16.9458333 25.375,16.5375 26.1625,16.8291667 L26.1625,16.8291667 C26.95,17.1208333 27.3583333,17.9666667 27.0666667,18.7541667 L27.0666667,18.7541667 C26.8333333,19.3666667 26.2791667,19.7458333 25.6666667,19.7458333 L25.6666667,19.7458333 C25.4916667,19.7458333 25.3166667,19.7166667 25.1416667,19.6583333 L25.1416667,19.6583333 Z M0.0875,14.0291667 C0.0875,13.2125 0.758333333,12.5125 1.575,12.5125 L1.575,12.5125 C2.39166667,12.5125 3.09166667,13.1833333 3.09166667,14 L3.09166667,14 C3.09166667,14.8458333 2.42083333,15.5166667 1.60416667,15.5166667 L1.60416667,15.5166667 C0.758333333,15.5458333 0.0875,14.875 0.0875,14.0291667 L0.0875,14.0291667 Z M24.9083333,14 L24.9083333,14 L24.9083333,14 L24.9083333,14 L24.9083333,13.9416667 L24.9083333,13.9416667 C24.9083333,13.0958333 25.5791667,12.425 26.3958333,12.425 L26.3958333,12.425 C27.2416667,12.425 27.9125,13.0958333 27.9125,13.9125 L27.9125,13.9125 L27.9125,13.9416667 L27.9125,13.9416667 L27.9125,13.9708333 L27.9125,13.9708333 C27.9125,14.7875 27.2416667,15.4875 26.3958333,15.4875 L26.3958333,15.4875 C25.5791667,15.5166667 24.9083333,14.8458333 24.9083333,14 L24.9083333,14 Z M1.80833333,11.2 C1.02083333,10.9083333 0.6125,10.0625 0.904166667,9.275 L0.904166667,9.275 L0.904166667,9.275 L0.904166667,9.275 C1.19583333,8.4875 2.04166667,8.07916667 2.82916667,8.37083333 L2.82916667,8.37083333 C3.61666667,8.6625 4.025,9.50833333 3.73333333,10.2958333 L3.73333333,10.2958333 C3.5,10.9083333 2.94583333,11.2875 2.33333333,11.2875 L2.33333333,11.2875 C2.15833333,11.2875 1.98333333,11.2583333 1.80833333,11.2 L1.80833333,11.2 Z M24.2375,10.2375 C23.9458333,9.45 24.3541667,8.60416667 25.1125,8.3125 L25.1125,8.3125 C25.9,8.02083333 26.7458333,8.42916667 27.0375,9.21666667 L27.0375,9.21666667 C27.3291667,10.0041667 26.9208333,10.85 26.1625,11.1416667 L26.1625,11.1416667 C25.9875,11.2 25.8125,11.2291667 25.6375,11.2291667 L25.6375,11.2291667 C25.0541667,11.2 24.4708333,10.85 24.2375,10.2375 L24.2375,10.2375 Z M3.5,7.20416667 C2.85833333,6.67916667 2.77083333,5.71666667 3.29583333,5.075 L3.29583333,5.075 L3.29583333,5.075 L3.29583333,5.075 C3.82083333,4.43333333 4.78333333,4.34583333 5.425,4.87083333 L5.425,4.87083333 C6.06666667,5.39583333 6.15416667,6.35833333 5.62916667,7 L5.62916667,7 C5.3375,7.35 4.9,7.525 4.4625,7.525 L4.4625,7.525 C4.14166667,7.55416667 3.79166667,7.4375 3.5,7.20416667 L3.5,7.20416667 Z M22.3416667,6.97083333 C21.8166667,6.32916667 21.875,5.39583333 22.5166667,4.84166667 L22.5166667,4.84166667 C23.1583333,4.31666667 24.0916667,4.375 24.6458333,5.01666667 L24.6458333,5.01666667 C25.1708333,5.65833333 25.1125,6.59166667 24.4708333,7.14583333 L24.4708333,7.14583333 C24.1791667,7.37916667 23.8291667,7.49583333 23.5083333,7.49583333 L23.5083333,7.49583333 C23.0708333,7.49583333 22.6333333,7.32083333 22.3416667,6.97083333 L22.3416667,6.97083333 Z M6.475,4.025 C6.06666667,3.29583333 6.3,2.39166667 7.02916667,1.98333333 L7.02916667,1.98333333 L7.02916667,1.98333333 L7.02916667,1.98333333 C7.75833333,1.575 8.6625,1.80833333 9.1,2.5375 L9.1,2.5375 C9.50833333,3.26666667 9.275,4.17083333 8.54583333,4.60833333 L8.54583333,4.60833333 C8.3125,4.75416667 8.05,4.8125 7.7875,4.8125 L7.7875,4.8125 C7.23333333,4.78333333 6.7375,4.49166667 6.475,4.025 L6.475,4.025 Z M19.425,4.52083333 C18.6958333,4.1125 18.4625,3.17916667 18.8708333,2.47916667 L18.8708333,2.47916667 C19.2791667,1.75 20.2125,1.51666667 20.9125,1.925 L20.9125,1.925 C21.6416667,2.33333333 21.875,3.26666667 21.4666667,3.96666667 L21.4666667,3.96666667 C21.175,4.4625 20.6791667,4.725 20.1541667,4.725 L20.1541667,4.725 C19.9208333,4.725 19.6583333,4.66666667 19.425,4.52083333 L19.425,4.52083333 Z M10.325,2.04166667 C10.1791667,1.225 10.7333333,0.4375 11.55,0.291666667 L11.55,0.291666667 C12.3666667,0.145833333 13.1541667,0.7 13.3,1.51666667 L13.3,1.51666667 C13.4458333,2.33333333 12.8916667,3.12083333 12.075,3.26666667 L12.075,3.26666667 C11.9875,3.29583333 11.9,3.29583333 11.8125,3.29583333 L11.8125,3.29583333 C11.0833333,3.29583333 10.4708333,2.77083333 10.325,2.04166667 L10.325,2.04166667 Z M15.8666667,3.2375 C15.05,3.09166667 14.4958333,2.30416667 14.6416667,1.4875 L14.6416667,1.4875 C14.7875,0.670833333 15.575,0.116666667 16.3916667,0.2625 L16.3916667,0.2625 L16.3916667,0.2625 L16.3916667,0.2625 C17.2083333,0.408333333 17.7625,1.19583333 17.6166667,2.0125 L17.6166667,2.0125 C17.5,2.74166667 16.8583333,3.26666667 16.1291667,3.26666667 L16.1291667,3.26666667 C16.0416667,3.26666667 15.9541667,3.26666667 15.8666667,3.2375 L15.8666667,3.2375 Z" id="Shape" fill="#000000"></path>
        <path d="M12.6583333,21.35 C12.6583333,20.6208333 13.2708333,20.0083333 14,20.0083333 L14,20.0083333 C14.7291667,20.0083333 15.3416667,20.5916667 15.3416667,21.35 L15.3416667,21.35 C15.3416667,22.0791667 14.7583333,22.6916667 14,22.6916667 L14,22.6916667 C13.2708333,22.6625 12.6583333,22.0791667 12.6583333,21.35 L12.6583333,21.35 Z M9.68333333,21.525 L9.68333333,21.525 L9.68333333,21.525 C9.04166667,21.1458333 8.80833333,20.3291667 9.1875,19.6875 L9.1875,19.6875 C9.56666667,19.0458333 10.3833333,18.8125 11.025,19.1916667 L11.025,19.1916667 C11.6666667,19.5708333 11.8708333,20.3875 11.5208333,21.0291667 L11.5208333,21.0291667 C11.2875,21.4666667 10.8208333,21.7 10.3541667,21.7 L10.3541667,21.7 C10.1208333,21.7 9.8875,21.6416667 9.68333333,21.525 L9.68333333,21.525 Z M16.5083333,21.0291667 C16.1291667,20.3875 16.3625,19.5708333 17.0041667,19.1916667 L17.0041667,19.1916667 C17.6458333,18.8125 18.4625,19.0458333 18.8416667,19.6875 L18.8416667,19.6875 C19.2208333,20.3291667 18.9875,21.1458333 18.3458333,21.525 L18.3458333,21.525 C18.1416667,21.6416667 17.9083333,21.7 17.675,21.7 L17.675,21.7 C17.2083333,21.7 16.7708333,21.4666667 16.5083333,21.0291667 L16.5083333,21.0291667 Z M6.50416667,18.3458333 L6.50416667,18.3458333 L6.50416667,18.3458333 C6.125,17.7041667 6.35833333,16.8875 7,16.5083333 L7,16.5083333 C7.64166667,16.1291667 8.45833333,16.3625 8.8375,17.0041667 L8.8375,17.0041667 C9.21666667,17.6458333 8.98333333,18.4625 8.34166667,18.8416667 L8.34166667,18.8416667 C8.1375,18.9583333 7.90416667,19.0166667 7.67083333,19.0166667 L7.67083333,19.0166667 C7.175,19.0166667 6.7375,18.7833333 6.50416667,18.3458333 L6.50416667,18.3458333 Z M19.6875,18.8125 C19.0458333,18.4333333 18.8416667,17.6166667 19.1916667,16.975 L19.1916667,16.975 C19.5708333,16.3333333 20.3875,16.1291667 21.0291667,16.4791667 L21.0291667,16.4791667 C21.6708333,16.8583333 21.875,17.675 21.525,18.3166667 L21.525,18.3166667 C21.2916667,18.7541667 20.825,18.9875 20.3583333,18.9875 L20.3583333,18.9875 C20.125,19.0166667 19.8916667,18.9583333 19.6875,18.8125 L19.6875,18.8125 Z M5.3375,14.0291667 C5.3375,13.3 5.92083333,12.6875 6.67916667,12.6875 L6.67916667,12.6875 C7.40833333,12.6875 8.02083333,13.2708333 8.02083333,14.0291667 L8.02083333,14.0291667 C8.02083333,14.7583333 7.4375,15.3708333 6.67916667,15.3708333 L6.67916667,15.3708333 C5.92083333,15.3416667 5.3375,14.7583333 5.3375,14.0291667 L5.3375,14.0291667 Z M20.0083333,14 L20.0083333,14 L20.0083333,14 C20.0083333,13.9708333 20.0083333,13.9708333 20.0083333,14 L20.0083333,14 C20.0083333,13.2416667 20.5916667,12.6291667 21.35,12.6291667 L21.35,12.6291667 C22.0791667,12.6291667 22.6916667,13.2125 22.6916667,13.9708333 L22.6916667,13.9708333 C22.6916667,13.9708333 22.6916667,13.9708333 22.6916667,14 L22.6916667,14 C22.6916667,14 22.6916667,14 22.6916667,14.0291667 L22.6916667,14.0291667 L22.6916667,14.0291667 L22.6916667,14.0291667 C22.6916667,14.7583333 22.0791667,15.3708333 21.35,15.3708333 L21.35,15.3708333 C20.5916667,15.3416667 20.0083333,14.7291667 20.0083333,14 L20.0083333,14 Z M6.97083333,11.4916667 C6.32916667,11.1125 6.125,10.2958333 6.475,9.65416667 L6.475,9.65416667 L6.475,9.65416667 L6.475,9.65416667 C6.85416667,9.0125 7.67083333,8.80833333 8.3125,9.15833333 L8.3125,9.15833333 C8.95416667,9.5375 9.1875,10.3541667 8.80833333,10.9958333 L8.80833333,10.9958333 C8.575,11.4333333 8.10833333,11.6666667 7.64166667,11.6666667 L7.64166667,11.6666667 C7.40833333,11.6958333 7.175,11.6375 6.97083333,11.4916667 L6.97083333,11.4916667 Z M19.1916667,10.9666667 C18.8125,10.325 19.0458333,9.50833333 19.6583333,9.12916667 L19.6583333,9.12916667 C20.3,8.75 21.1166667,8.98333333 21.4958333,9.59583333 L21.4958333,9.59583333 L21.4958333,9.59583333 L21.4958333,9.59583333 C21.875,10.2375 21.6416667,11.0541667 21.0291667,11.4333333 L21.0291667,11.4333333 C20.825,11.55 20.5916667,11.6083333 20.3583333,11.6083333 L20.3583333,11.6083333 C19.8916667,11.6375 19.425,11.4041667 19.1916667,10.9666667 L19.1916667,10.9666667 Z M9.15833333,8.34166667 C8.77916667,7.7 9.0125,6.88333333 9.65416667,6.50416667 L9.65416667,6.50416667 L9.65416667,6.50416667 L9.65416667,6.50416667 C10.2958333,6.125 11.1125,6.35833333 11.4916667,7 L11.4916667,7 C11.8708333,7.64166667 11.6375,8.45833333 10.9958333,8.8375 L10.9958333,8.8375 C10.7916667,8.95416667 10.5583333,9.0125 10.325,9.0125 L10.325,9.0125 C9.85833333,8.98333333 9.39166667,8.75 9.15833333,8.34166667 L9.15833333,8.34166667 Z M16.975,8.77916667 C16.3333333,8.4 16.1291667,7.58333333 16.4791667,6.94166667 L16.4791667,6.94166667 C16.8583333,6.3 17.675,6.09583333 18.3166667,6.44583333 L18.3166667,6.44583333 L18.3166667,6.44583333 L18.3166667,6.44583333 C18.9583333,6.825 19.1916667,7.64166667 18.8125,8.28333333 L18.8125,8.28333333 C18.5791667,8.72083333 18.1125,8.95416667 17.6458333,8.95416667 L17.6458333,8.95416667 C17.4125,8.98333333 17.1791667,8.89583333 16.975,8.77916667 L16.975,8.77916667 Z M12.6291667,6.67916667 C12.6291667,5.95 13.2125,5.3375 13.9708333,5.3375 L13.9708333,5.3375 C14.7,5.3375 15.3125,5.92083333 15.3125,6.67916667 L15.3125,6.67916667 C15.3125,7.40833333 14.7291667,8.02083333 13.9708333,8.02083333 L13.9708333,8.02083333 L13.9708333,8.02083333 L13.9708333,8.02083333 C13.2416667,7.99166667 12.6291667,7.40833333 12.6291667,6.67916667 L12.6291667,6.67916667 Z" id="Shape" fill="#000000"></path>
        <ellipse id="Oval" fill="#000000" cx="14" cy="14" rx="2.5375" ry="2.5375"></ellipse>
    </g>
</svg>
