<svg width="28px" height="29px" viewBox="28 0 28 29" version="1.1" xmlns="http://www.w3.org/2000/svg" xmlns:xlink="http://www.w3.org/1999/xlink">
    <defs></defs>
    <path d="M55.1194224,0.816122332 C55.1194224,0.816122332 55.1114488,0.758284433 55.0745438,0.703437399 C55.0406391,0.653573064 54.9957605,0.636623796 54.92196,0.602712811 C54.867116,0.577780643 54.7893287,0.539885989 54.6945858,0.487033902 C54.5938612,0.406249446 54.4941357,0.322483463 54.392412,0.234724473 C54.3046593,0.160920775 54.219888,0.0861336092 54.1381139,0.0123299112 C53.8848117,0.335449061 53.610564,0.669529527 53.3123833,1.00959794 C53.2964237,0.991643423 53.2804704,0.97568696 53.263518,0.958737692 C53.2924369,0.927823796 53.3213559,0.896906788 53.351277,0.866985697 C53.3113843,0.855019128 53.2714915,0.843052559 53.2325979,0.832085019 C53.2375899,0.807152851 53.2405776,0.778233902 53.2405839,0.74432603 C53.2405839,0.706428263 53.2356012,0.675514367 53.2306091,0.6505822 C53.2006912,0.606702705 53.1657843,0.561824181 53.1288855,0.514956934 C53.085006,0.461105817 53.0411265,0.413233316 53.000241,0.370352851 C52.9613442,0.379325444 52.910484,0.396284049 52.8566328,0.426198915 C52.8027817,0.456116894 52.7618962,0.489025737 52.7339701,0.514956934 C52.7090348,0.543872771 52.6801221,0.580771508 52.6551837,0.627644979 C52.6222779,0.686478795 52.6053193,0.741335165 52.5953508,0.783210377 C52.6841088,0.85402321 52.7738659,0.923827678 52.8626177,0.99263934 C52.8875499,0.997631376 52.9184637,1.00261407 52.9533644,1.00161816 C53.0012369,1.00161193 53.0411328,0.99363837 53.0700486,0.984659553 L53.1139281,1.10832759 L53.2096669,1.01258881 L53.2635149,1.06643993 C53.1308774,1.21703507 52.9952459,1.36861369 52.8546348,1.52119134 C52.7938029,1.58601622 52.7349691,1.6508411 52.67513,1.71266266 C52.6571817,1.69471126 52.6392303,1.67676296 52.6222779,1.65781563 C52.6501979,1.62789765 52.6801158,1.59798279 52.7090348,1.56706889 C52.6691545,1.55510232 52.6292618,1.54313575 52.591364,1.53116918 C52.5953508,1.50722982 52.5983417,1.47831087 52.5983417,1.44440922 C52.5993376,1.40751049 52.5933559,1.37559756 52.5883701,1.35065917 C52.5584521,1.30677967 52.5245504,1.2629064 52.4866464,1.2150339 C52.442767,1.16118279 52.3988937,1.11331651 52.3580019,1.07042982 C52.3191145,1.07940864 52.2692533,1.09536821 52.2143969,1.12627588 C52.1605395,1.15620009 52.1206531,1.18811301 52.0917341,1.2150339 C52.0668019,1.24395908 52.0388758,1.27985878 52.0129477,1.32772506 C51.9800358,1.3865651 51.9630834,1.44141525 51.9531149,1.48330291 C52.0418729,1.55410329 52.1316206,1.62391398 52.2213776,1.69371845 C52.2463098,1.69871049 52.2772237,1.70169824 52.3121275,1.70269727 C52.359001,1.70170446 52.3988875,1.69372467 52.4288054,1.68574489 L52.4726912,1.80740864 L52.5674278,1.712672 L52.6232739,1.76851807 C52.4138511,1.98990737 52.2064171,2.19933634 52.0019802,2.39978026 C51.9920085,2.38781369 51.98204,2.37784207 51.9710663,2.3668683 C51.9999914,2.33596063 52.0299063,2.30604265 52.0588253,2.27512876 C52.0189388,2.26315596 51.9800451,2.25218842 51.9401524,2.24022186 C51.9441454,2.21628872 51.9481291,2.18637074 51.9481259,2.15246287 C51.9491219,2.11556413 51.9441392,2.08465023 51.9381605,2.05871904 C51.9072466,2.01583857 51.8743347,1.97096005 51.83644,1.92508872 C51.7935565,1.87024168 51.749677,1.82236607 51.7077955,1.77848658 C51.6698947,1.78846131 51.6190375,1.80541369 51.5641905,1.83433264 C51.5103331,1.86425373 51.4694414,1.89715946 51.4425205,1.92408346 C51.4165893,1.95200961 51.3886632,1.98990737 51.3627382,2.03578182 C51.3308253,2.09562088 51.3118779,2.15047103 51.3019032,2.19235247 C51.3916571,2.26215693 51.4814142,2.33197074 51.5711712,2.40177521 C51.5960972,2.40676102 51.6260183,2.41075402 51.661918,2.41075402 C51.7087883,2.40975499 51.7486748,2.40177521 51.7785959,2.39380164 L51.8214795,2.5164582 L51.917212,2.42072565 L51.9481259,2.45163954 C51.8284571,2.56732467 51.7117792,2.68000961 51.5951013,2.78871398 C51.6110515,2.87647297 51.629006,3.04002749 51.5741559,3.23249785 C51.5123281,3.45588211 51.3876641,3.59849124 51.3228424,3.6633099 L40.7718048,13.8094635 C40.6152342,13.8643105 40.4656443,13.9141748 40.3599339,13.9341212 C40.3120676,13.9440928 40.2661901,13.9480796 40.2602083,13.9480827 C40.1983774,13.9540613 40.0846966,13.9640361 39.9570418,13.9301344 C39.830386,13.8972162 39.744625,13.8373834 39.6827941,13.7915121 C39.62495,13.7496306 39.5222305,13.6728392 39.4394604,13.5362149 C39.4215121,13.5062969 39.3726406,13.4215288 39.3437216,13.2988598 C39.3018371,13.1233449 39.3247743,12.9727591 39.3477084,12.8840011 C39.3945819,12.7334184 39.4434472,12.5828326 39.4913135,12.4332427 C39.5730907,12.27168 39.6059996,12.129074 39.6219592,12.0313434 C39.6448933,11.8867455 39.6758103,11.6862891 39.5800715,11.4788551 C39.5222274,11.3532046 39.4334756,11.2604598 39.3975696,11.2265519 C39.3367378,11.16572 39.2818907,11.1288151 39.2649384,11.1178537 C39.2160668,11.0849418 39.1013869,11.0181282 38.8869784,10.9852162 C38.5489049,10.9323579 38.2616917,11.0121434 38.1839043,11.0340815 C37.9166375,11.1138607 37.7391277,11.2375257 37.611476,11.3292683 C37.2564501,11.582583 37.0589971,11.8658032 36.8984365,12.1001581 C36.7747716,12.2796629 36.6221939,12.5359622 36.4875584,12.8680508 L36.1155801,14.0518013 C36.1085994,14.0707486 36.1026145,14.090695 36.0936357,14.1096454 C36.0387887,14.2502565 35.9221107,14.4826195 35.6907436,14.6960291 C35.4823199,14.8885057 35.2639121,14.9872353 35.1073477,15.0400936 C35.033544,15.0660155 34.9567587,15.0789873 34.8779724,15.0839669 C34.5349131,15.1278464 34.1699187,15.1497908 33.7829862,15.141811 C33.7361127,15.1408182 33.6882464,15.1388232 33.6423626,15.1368252 C33.2424645,15.0939447 32.6800077,15.0819782 32.033785,15.227575 C31.7824777,15.2854192 30.9717045,15.4739027 30.1549403,16.1091579 C29.8388081,16.3554856 29.4279393,16.7284598 29.0419902,17.2560096 C28.6630312,17.772592 28.4336621,18.265238 28.2930511,18.6352244 C28.1713873,19.0181702 28.0477286,19.5327607 28.0108237,20.1480695 C27.9709309,20.8222184 28.0477224,21.3916528 28.1364804,21.8095117 C28.1414724,21.8324458 28.1474479,21.854384 28.1544318,21.8773243 C28.2571514,22.2353379 28.3977718,22.6332442 28.5932299,23.0560858 C28.8046476,23.514824 29.1497049,24.1391148 29.6912163,24.8202476 C29.9076198,25.0685578 30.1479595,25.328847 30.4142305,25.5931261 C30.6495844,25.826482 30.8809484,26.0398915 31.1053317,26.234363 C31.4264466,26.495645 31.8064046,26.7738825 32.2491895,27.0451393 C32.6820027,27.3124062 33.1088279,27.4998845 33.4828042,27.664438 C33.5137243,27.6793986 33.5446351,27.6903661 33.578543,27.700344 C34.4192342,27.9586258 35.1422515,28.009486 35.1422515,28.009486 C35.4863098,28.0344213 36.0198414,28.0693251 36.6900003,27.9317049 C36.8326126,27.9027797 37.115839,27.8389601 37.4588921,27.7113053 C37.6344163,27.6474857 37.9884462,27.5048765 38.3943323,27.2585519 C38.7304015,27.054115 39.5810705,26.5225753 40.1933854,25.475446 C40.2252983,25.4215949 40.3778822,25.1573189 40.526473,24.7853438 C40.8615588,23.9456485 40.8804999,23.2724987 40.8914736,23.0879988 C40.8924727,23.0670596 40.8924664,23.0451152 40.8914736,23.0241698 C40.8814989,22.4696928 40.8705282,21.9162211 40.8595607,21.3607389 C40.8475941,21.1752493 40.849586,20.7563976 41.1248295,20.397385 C41.1517566,20.3624843 41.2624528,20.221867 41.5406935,20.0473418 C41.9695137,19.782073 42.2108493,19.8040174 42.7583456,19.6215094 C42.9937057,19.5437282 43.449453,19.3891525 43.9301294,19.052075 C44.1654802,18.8865255 44.412807,18.7090157 44.6322013,18.3859059 C44.9483397,17.9201776 44.9772556,17.4923564 44.9812486,17.4045974 C44.9892221,17.2530126 44.9962029,17.0665301 44.8974764,16.8600889 C44.8885038,16.8391498 44.7518795,16.5629072 44.5035568,16.4462293 C44.4147988,16.4053375 44.3120824,16.3824096 44.3120824,16.3824096 C44.3120824,16.3824096 44.2133559,16.361458 44.1126282,16.3604621 C43.9231456,16.3604621 43.7376559,16.4621857 43.5192575,16.5409659 C43.3237901,16.6107766 43.0814585,16.6955478 42.7912575,16.6566573 C42.7074853,16.6466825 42.6017811,16.6307198 42.4821092,16.5669002 C42.4821092,16.5669002 42.2048676,16.4173103 42.0592707,16.0383451 C42.0353314,15.9725274 42.0223658,15.9097006 42.0223658,15.9097006 C42.018379,15.8857612 42.0123941,15.8518627 42.0094064,15.8049892 C42.0094064,15.8049892 42.0014266,15.6733507 42.0223658,15.550688 C42.0353376,15.4679148 42.0762231,15.3592073 42.1230904,15.2365476 L42.220821,15.1368221 L52.3599938,4.70046753 C52.4208256,4.63764071 52.5574499,4.51297987 52.7758515,4.45015928 C52.9623401,4.39730097 53.1199098,4.41525238 53.2036758,4.42921389 C53.3163732,4.30854295 53.4340439,4.1868792 53.5557108,4.06520922 L53.6035771,4.1130755 L53.5078383,4.20881428 L53.6305042,4.25169474 C53.6225244,4.28161272 53.6145508,4.32150543 53.6135518,4.36837268 C53.6135456,4.40427861 53.6175386,4.43420281 53.6215254,4.46012468 C53.6923351,4.54887647 53.7621427,4.63863974 53.8319502,4.72839057 C53.8738317,4.71841583 53.9286818,4.69946539 53.9885178,4.66755869 C54.0343922,4.64162127 54.07229,4.61370758 54.0992109,4.5887723 C54.127137,4.56084615 54.1600459,4.51996063 54.1899638,4.46611263 C54.2188828,4.41126559 54.2358414,4.36040223 54.2458099,4.32250757 C54.2019304,4.28062614 54.1530651,4.23773634 54.0992171,4.19385684 C54.0533395,4.1559653 54.0084641,4.12305646 53.9655806,4.09213945 C53.9396587,4.08615772 53.9077395,4.08216472 53.8718398,4.08216472 C53.8369392,4.08116569 53.8080109,4.08615772 53.784084,4.0901445 C53.7721112,4.05025801 53.7611436,4.01136433 53.7491771,3.97146851 C53.7182632,4.00038745 53.688339,4.03030855 53.657422,4.05922749 C53.6414686,4.04327414 53.6255153,4.02732079 53.6085566,4.01236025 C53.8090068,3.8079171 54.0204276,3.60248736 54.2438181,3.39505335 L54.3116338,3.46286598 L54.215895,3.55860476 L54.3385578,3.601479 C54.3305843,3.6314032 54.3226045,3.67128969 54.3216054,3.71815693 C54.3216054,3.75406909 54.3255984,3.78398085 54.3305749,3.8089099 C54.4003918,3.89866695 54.4701963,3.98842089 54.5409998,4.07717579 C54.5828906,4.06720417 54.6377314,4.05024868 54.6965683,4.01734295 C54.7424521,3.99141486 54.7803405,3.96349183 54.8092657,3.93856277 C54.8351938,3.91063663 54.8680995,3.86974489 54.8980175,3.81589377 C54.9269364,3.76104674 54.944891,3.7111824 54.9538635,3.67228872 C54.9099841,3.63040417 54.862124,3.58652468 54.8092595,3.54364421 C54.7613932,3.50574644 54.7175137,3.47183857 54.6736342,3.44192059 C54.6487083,3.43693478 54.6167984,3.43095305 54.5798966,3.43194897 C54.5459856,3.43194275 54.5170698,3.43494295 54.4921376,3.43992253 C54.4801648,3.40003604 54.4691942,3.36114236 54.4572307,3.32124654 C54.4263199,3.35017171 54.3963957,3.3800928 54.3654849,3.40901175 C54.3435405,3.38706733 54.3216054,3.36513225 54.298662,3.34418687 C54.3595001,3.28734178 54.4213372,3.23149571 54.4831588,3.17564965 C54.6407285,3.03204459 54.7982919,2.89442127 54.9528707,2.76178998 L55.0117077,2.8206238 L54.9159751,2.91635635 L55.0386379,2.95924304 C55.0306581,2.98916102 55.0226845,3.02905373 55.0216855,3.07592098 C55.0216855,3.11182068 55.0266713,3.14273458 55.0306581,3.16667394 C55.1004657,3.25642477 55.1702764,3.34617248 55.2400808,3.43592953 C55.2829675,3.42496199 55.3378177,3.40800961 55.3966608,3.37509765 C55.4435281,3.35016548 55.4804268,3.32124031 55.5093458,3.29631748 C55.5352739,3.26839134 55.5681858,3.22750582 55.5981038,3.1736547 C55.628028,3.11979736 55.6449741,3.06893711 55.6539499,3.03004965 C55.6110756,2.9891579 55.5632,2.94527841 55.509352,2.90139892 C55.4624785,2.86449395 55.4166072,2.83059231 55.3737205,2.79968152 C55.3487883,2.79468949 55.3168754,2.78870776 55.2799767,2.78970679 C55.246075,2.78970679 55.2171499,2.79270076 55.1922177,2.79768035 C55.1812501,2.75878667 55.1692836,2.7189064 55.157317,2.67901058 C55.1274021,2.70892856 55.0964851,2.73784439 55.0655712,2.76676334 C55.0476229,2.74881193 55.0296715,2.73086364 55.0097252,2.71291223 C55.3487883,2.42371028 55.6798811,2.15844148 56,1.91610056 C55.9631075,1.87521505 55.9002807,1.80639716 55.8204952,1.72063623 C55.5851413,1.46134915 55.5552264,1.42744128 55.5203226,1.35663778 C55.4455261,1.20804692 55.4215961,1.13424945 55.4215961,1.13424945 C55.3966577,1.06344284 55.3856933,1.00659774 55.33084,0.963707942 C55.3168816,0.951747597 55.2839666,0.924820483 55.2361003,0.91684692 C55.1822492,0.906872185 55.1523343,0.926818542 55.132388,0.906872185 C55.1144365,0.888927 55.1264031,0.864993862 55.1194224,0.816122332 L55.1194224,0.816122332 Z M30.4162316,18.2213523 C30.3843125,18.1495529 30.3803319,18.083729 30.3813247,18.0448415 C30.3853177,18.0149173 30.4052579,17.9012302 30.5079774,17.8184602 C30.578784,17.7596201 30.6545733,17.7456617 30.688475,17.7416687 C30.7054336,17.7426678 30.8270973,17.7546343 30.8998989,17.8613438 C30.9597317,17.9491027 30.9617298,18.0647879 30.9088715,18.1615195 C31.0784077,18.1316015 31.2808497,18.084728 31.5002472,18.0049488 C31.6977096,17.9331432 31.8662468,17.8523649 32.0058588,17.7745807 C32.1654172,17.6728571 32.3449313,17.5452054 32.5304209,17.381654 C32.7209026,17.2151179 32.876468,17.0495684 32.998138,16.9019704 C33.1357613,16.9039653 33.3441912,16.8969846 33.5905127,16.8461243 C33.730131,16.8162157 33.9146215,16.7513908 34.27862,16.6187502 C34.27862,16.6187502 34.548887,16.5220186 35.1183183,16.3953628 C35.1602029,16.3853881 35.2609275,16.3644489 35.3696318,16.4053344 C35.4593827,16.4392454 35.5062561,16.4980854 35.5152287,16.509053 C35.5341823,16.5339851 35.597006,16.6147634 35.5790546,16.7184757 C35.5760668,16.7354281 35.5581154,16.8431334 35.4623704,16.8810281 C35.4563918,16.8830262 35.3815922,16.911942 35.3127867,16.8730483 C35.2399821,16.8301678 35.2050814,16.7274452 35.2409873,16.6257278 C35.0644641,16.6426802 34.8430748,16.680578 34.5987451,16.7653461 C34.2507001,16.8840127 33.9874231,17.0515603 33.812901,17.1841916 C33.6982149,17.2749476 33.5745593,17.382653 33.4488995,17.5102985 C33.3421963,17.6189966 33.2504505,17.726702 33.1706651,17.8264306 C33.0789193,17.8124722 32.9492758,17.8044924 32.7976909,17.8264306 C32.6510888,17.847376 32.5314231,17.8892637 32.4486499,17.9261562 C32.1135704,18.077741 31.8094017,18.2023988 31.5471269,18.3031171 C31.3456777,18.3809076 31.1562013,18.4487202 30.8999051,18.4477274 C30.7712544,18.4467315 30.663549,18.4287801 30.5907506,18.4118215 C30.5558468,18.3928835 30.4670888,18.3360322 30.4162316,18.2213523 L30.4162316,18.2213523 Z M34.5349255,18.9513473 L37.003151,21.4195727 L36.5284532,21.8942705 L34.0602278,19.426045 L34.5349255,18.9513473 L34.5349255,18.9513473 Z M39.5890534,20.6247529 C39.6299389,20.7334573 39.6089998,20.8341819 39.599025,20.8760664 C39.4723755,21.4455039 39.3746418,21.7147688 39.3746418,21.7147688 C39.2430033,22.0797663 39.1781846,22.2642631 39.1482666,22.4038752 C39.0974064,22.6501966 39.0904225,22.8586266 39.0914215,22.9952477 C38.9448194,23.1179167 38.7782802,23.2724925 38.611738,23.4629648 C38.4491825,23.6494534 38.3215308,23.8289644 38.2198072,23.9885228 C38.1420229,24.1281348 38.0602488,24.2956761 37.9884431,24.4931385 C37.9096598,24.713535 37.8617873,24.914978 37.8328715,25.0855133 C37.9286103,25.0316621 38.0452882,25.034653 38.1320513,25.0934868 C38.2397566,25.1672905 38.2517232,25.2889543 38.2527222,25.3059098 C38.2487292,25.3398145 38.2347739,25.4156007 38.1759308,25.4864073 C38.0921648,25.5881309 37.9794736,25.6090701 37.9495494,25.6130631 C37.910662,25.6140528 37.8448381,25.6100722 37.7730386,25.5781531 C37.6583588,25.527296 37.6015043,25.438541 37.5815673,25.4026413 C37.5656077,25.3308388 37.5476563,25.2231366 37.5466604,25.0944858 C37.5456676,24.8381865 37.6134802,24.6487101 37.6912707,24.447261 C37.7909901,24.1839902 37.9166468,23.8808174 38.0682317,23.5457379 C38.1051242,23.4629616 38.1470149,23.343296 38.1679572,23.1966969 C38.1898923,23.045109 38.1809166,22.9144695 38.1669582,22.8227237 C38.2676828,22.7439342 38.3743891,22.6511894 38.4830872,22.5444893 C38.6107389,22.4188326 38.7194402,22.2961729 38.8091941,22.1804847 C38.9418254,22.0059626 39.1103689,21.7436816 39.2290386,21.3956396 C39.3138099,21.1513099 39.3517077,20.9299206 39.3686569,20.7533974 C39.2669426,20.7893002 39.16422,20.7543995 39.1213395,20.6815949 C39.0824458,20.6127894 39.110372,20.536997 39.1133597,20.5320112 C39.1512575,20.4362662 39.2579638,20.4173189 39.2749162,20.414328 C39.3796276,20.3973756 39.459413,20.4592065 39.485338,20.4791529 C39.4963024,20.4881255 39.5551424,20.5350021 39.5890534,20.6247529 L39.5890534,20.6247529 Z M39.1462655,18.9274172 L38.1360381,19.9376446 L35.9919245,17.7935311 L37.002152,16.7833037 L39.1462655,18.9274172 L39.1462655,18.9274172 Z M41.6783199,16.3953628 L40.6690915,17.4045912 L38.524978,15.2604777 L39.5342064,14.2512493 L41.6783199,16.3953628 L41.6783199,16.3953628 Z" id="Shape" stroke="none" fill="#000000" fill-rule="evenodd"></path>
</svg>
