<svg width="28px" height="28px" viewBox="27 0 28 28" version="1.1" xmlns="http://www.w3.org/2000/svg" xmlns:xlink="http://www.w3.org/1999/xlink">
    <defs></defs>
    <g id="Group" stroke="none" stroke-width="1" fill="none" fill-rule="evenodd" transform="translate(27.000000, 0.000000)">
        <g id="Shape" fill="#000000">
            <path d="M27.125,25.8125 C27.125,26.536125 26.536125,27.125 25.8125,27.125 L2.1875,27.125 C1.463875,27.125 0.875,26.536125 0.875,25.8125 L0.875,2.1875 C0.875,1.463875 1.463875,0.875 2.1875,0.875 L25.8125,0.875 C26.536125,0.875 27.125,1.463875 27.125,2.1875 L27.125,25.8125 L27.125,25.8125 Z M25.8125,0 L2.1875,0 C0.9795625,0 0,0.9795625 0,2.1875 L0,25.8125 C0,27.0204375 0.9795625,28 2.1875,28 L25.8125,28 C27.0204375,28 28,27.0204375 28,25.8125 L28,2.1875 C28,0.9795625 27.0204375,0 25.8125,0 L25.8125,0 L25.8125,0 Z M25.375,21 L24.9375,21 L24.9375,17.0625 C24.9375,16.821 24.7415,16.625 24.5,16.625 C24.2585,16.625 24.0625,16.821 24.0625,17.0625 L24.0625,21 L23.625,21 C23.384375,21 23.1875,21.196875 23.1875,21.4375 C23.1875,21.678125 23.384375,21.875 23.625,21.875 L24.0625,21.875 L24.0625,25.8125 C24.0625,26.054 24.2585,26.25 24.5,26.25 C24.7415,26.25 24.9375,26.054 24.9375,25.8125 L24.9375,21.875 L25.375,21.875 C25.615625,21.875 25.8125,21.678125 25.8125,21.4375 C25.8125,21.196875 25.615625,21 25.375,21 L25.375,21 L25.375,21 Z M25.375,10.5 L24.9375,10.5 L24.9375,6.5625 C24.9375,6.321 24.7415,6.125 24.5,6.125 C24.2585,6.125 24.0625,6.321 24.0625,6.5625 L24.0625,10.5 L23.625,10.5 C23.384375,10.5 23.1875,10.696875 23.1875,10.9375 C23.1875,11.178125 23.384375,11.375 23.625,11.375 L24.0625,11.375 L24.0625,15.3125 C24.0625,15.554 24.2585,15.75 24.5,15.75 C24.7415,15.75 24.9375,15.554 24.9375,15.3125 L24.9375,11.375 L25.375,11.375 C25.615625,11.375 25.8125,11.178125 25.8125,10.9375 C25.8125,10.696875 25.615625,10.5 25.375,10.5 L25.375,10.5 L25.375,10.5 Z M22.3125,4.375 L21.4375,4.375 C21.196875,4.375 21,4.571875 21,4.8125 C21,5.053125 21.196875,5.25 21.4375,5.25 L22.3125,5.25 C22.553125,5.25 22.75,5.053125 22.75,4.8125 C22.75,4.571875 22.553125,4.375 22.3125,4.375 L22.3125,4.375 L22.3125,4.375 Z M24.0625,5.25 L24.9375,5.25 C25.178125,5.25 25.375,5.053125 25.375,4.8125 C25.375,4.571875 25.178125,4.375 24.9375,4.375 L24.0625,4.375 C23.821875,4.375 23.625,4.571875 23.625,4.8125 C23.625,5.053125 23.821875,5.25 24.0625,5.25 L24.0625,5.25 L24.0625,5.25 Z M22.3125,2.625 L21.4375,2.625 C21.196875,2.625 21,2.821875 21,3.0625 C21,3.303125 21.196875,3.5 21.4375,3.5 L22.3125,3.5 C22.553125,3.5 22.75,3.303125 22.75,3.0625 C22.75,2.821875 22.553125,2.625 22.3125,2.625 L22.3125,2.625 L22.3125,2.625 Z M24.0625,3.5 L24.9375,3.5 C25.178125,3.5 25.375,3.303125 25.375,3.0625 C25.375,2.821875 25.178125,2.625 24.9375,2.625 L24.0625,2.625 C23.821875,2.625 23.625,2.821875 23.625,3.0625 C23.625,3.303125 23.821875,3.5 24.0625,3.5 L24.0625,3.5 L24.0625,3.5 Z M7.875,3.0625 C7.875,2.821875 7.678125,2.625 7.4375,2.625 L6.5625,2.625 C6.321875,2.625 6.125,2.821875 6.125,3.0625 C6.125,3.303125 6.321875,3.5 6.5625,3.5 L7.4375,3.5 C7.678125,3.5 7.875,3.303125 7.875,3.0625 L7.875,3.0625 L7.875,3.0625 Z M4.8125,3.5 C5.054,3.5 5.25,3.304 5.25,3.0625 C5.25,2.821 5.054,2.625 4.8125,2.625 C4.571,2.625 4.375,2.821 4.375,3.0625 C4.375,3.304 4.571,3.5 4.8125,3.5 L4.8125,3.5 L4.8125,3.5 Z M3.0625,3.5 C3.304,3.5 3.5,3.304 3.5,3.0625 C3.5,2.821 3.304,2.625 3.0625,2.625 C2.821,2.625 2.625,2.821 2.625,3.0625 C2.625,3.304 2.821,3.5 3.0625,3.5 L3.0625,3.5 L3.0625,3.5 Z M21.4375,25.375 C21.4375,25.6165 21.2415,25.8125 21,25.8125 L18.375,25.8125 C18.1335,25.8125 17.9375,25.6165 17.9375,25.375 L17.9375,22.75 C17.9375,22.5085 18.1335,22.3125 18.375,22.3125 L21,22.3125 C21.2415,22.3125 21.4375,22.5085 21.4375,22.75 L21.4375,25.375 L21.4375,25.375 Z M21,21.875 L18.375,21.875 C17.8924375,21.875 17.5,22.2674375 17.5,22.75 L17.5,25.375 C17.5,25.8575625 17.8924375,26.25 18.375,26.25 L21,26.25 C21.4825625,26.25 21.875,25.8575625 21.875,25.375 L21.875,22.75 C21.875,22.2674375 21.4825625,21.875 21,21.875 L21,21.875 L21,21.875 Z M16.1875,25.375 C16.1875,25.6165 15.9915,25.8125 15.75,25.8125 L13.125,25.8125 C12.8835,25.8125 12.6875,25.6165 12.6875,25.375 L12.6875,22.75 C12.6875,22.5085 12.8835,22.3125 13.125,22.3125 L15.75,22.3125 C15.9915,22.3125 16.1875,22.5085 16.1875,22.75 L16.1875,25.375 L16.1875,25.375 Z M15.75,21.875 L13.125,21.875 C12.6424375,21.875 12.25,22.2674375 12.25,22.75 L12.25,25.375 C12.25,25.8575625 12.6424375,26.25 13.125,26.25 L15.75,26.25 C16.2325625,26.25 16.625,25.8575625 16.625,25.375 L16.625,22.75 C16.625,22.2674375 16.2325625,21.875 15.75,21.875 L15.75,21.875 L15.75,21.875 Z M10.9375,25.375 C10.9375,25.6165 10.7415,25.8125 10.5,25.8125 L7.875,25.8125 C7.6335,25.8125 7.4375,25.6165 7.4375,25.375 L7.4375,22.75 C7.4375,22.5085 7.6335,22.3125 7.875,22.3125 L10.5,22.3125 C10.7415,22.3125 10.9375,22.5085 10.9375,22.75 L10.9375,25.375 L10.9375,25.375 Z M10.5,21.875 L7.875,21.875 C7.3924375,21.875 7,22.2674375 7,22.75 L7,25.375 C7,25.8575625 7.3924375,26.25 7.875,26.25 L10.5,26.25 C10.9825625,26.25 11.375,25.8575625 11.375,25.375 L11.375,22.75 C11.375,22.2674375 10.9825625,21.875 10.5,21.875 L10.5,21.875 L10.5,21.875 Z M5.6875,25.375 C5.6875,25.6165 5.4915,25.8125 5.25,25.8125 L2.625,25.8125 C2.3835,25.8125 2.1875,25.6165 2.1875,25.375 L2.1875,22.75 C2.1875,22.5085 2.3835,22.3125 2.625,22.3125 L5.25,22.3125 C5.4915,22.3125 5.6875,22.5085 5.6875,22.75 L5.6875,25.375 L5.6875,25.375 Z M5.25,21.875 L2.625,21.875 C2.1424375,21.875 1.75,22.2674375 1.75,22.75 L1.75,25.375 C1.75,25.8575625 2.1424375,26.25 2.625,26.25 L5.25,26.25 C5.7325625,26.25 6.125,25.8575625 6.125,25.375 L6.125,22.75 C6.125,22.2674375 5.7325625,21.875 5.25,21.875 L5.25,21.875 L5.25,21.875 Z M21.4375,20.125 C21.4375,20.3665 21.2415,20.5625 21,20.5625 L18.375,20.5625 C18.1335,20.5625 17.9375,20.3665 17.9375,20.125 L17.9375,17.5 C17.9375,17.2585 18.1335,17.0625 18.375,17.0625 L21,17.0625 C21.2415,17.0625 21.4375,17.2585 21.4375,17.5 L21.4375,20.125 L21.4375,20.125 Z M21,16.625 L18.375,16.625 C17.8924375,16.625 17.5,17.0174375 17.5,17.5 L17.5,20.125 C17.5,20.6075625 17.8924375,21 18.375,21 L21,21 C21.4825625,21 21.875,20.6075625 21.875,20.125 L21.875,17.5 C21.875,17.0174375 21.4825625,16.625 21,16.625 L21,16.625 L21,16.625 Z M16.1875,20.125 C16.1875,20.3665 15.9915,20.5625 15.75,20.5625 L13.125,20.5625 C12.8835,20.5625 12.6875,20.3665 12.6875,20.125 L12.6875,17.5 C12.6875,17.2585 12.8835,17.0625 13.125,17.0625 L15.75,17.0625 C15.9915,17.0625 16.1875,17.2585 16.1875,17.5 L16.1875,20.125 L16.1875,20.125 Z M15.75,16.625 L13.125,16.625 C12.6424375,16.625 12.25,17.0174375 12.25,17.5 L12.25,20.125 C12.25,20.6075625 12.6424375,21 13.125,21 L15.75,21 C16.2325625,21 16.625,20.6075625 16.625,20.125 L16.625,17.5 C16.625,17.0174375 16.2325625,16.625 15.75,16.625 L15.75,16.625 L15.75,16.625 Z M10.9375,20.125 C10.9375,20.3665 10.7415,20.5625 10.5,20.5625 L7.875,20.5625 C7.6335,20.5625 7.4375,20.3665 7.4375,20.125 L7.4375,17.5 C7.4375,17.2585 7.6335,17.0625 7.875,17.0625 L10.5,17.0625 C10.7415,17.0625 10.9375,17.2585 10.9375,17.5 L10.9375,20.125 L10.9375,20.125 Z M10.5,16.625 L7.875,16.625 C7.3924375,16.625 7,17.0174375 7,17.5 L7,20.125 C7,20.6075625 7.3924375,21 7.875,21 L10.5,21 C10.9825625,21 11.375,20.6075625 11.375,20.125 L11.375,17.5 C11.375,17.0174375 10.9825625,16.625 10.5,16.625 L10.5,16.625 L10.5,16.625 Z M5.6875,20.125 C5.6875,20.3665 5.4915,20.5625 5.25,20.5625 L2.625,20.5625 C2.3835,20.5625 2.1875,20.3665 2.1875,20.125 L2.1875,17.5 C2.1875,17.2585 2.3835,17.0625 2.625,17.0625 L5.25,17.0625 C5.4915,17.0625 5.6875,17.2585 5.6875,17.5 L5.6875,20.125 L5.6875,20.125 Z M5.25,16.625 L2.625,16.625 C2.1424375,16.625 1.75,17.0174375 1.75,17.5 L1.75,20.125 C1.75,20.6075625 2.1424375,21 2.625,21 L5.25,21 C5.7325625,21 6.125,20.6075625 6.125,20.125 L6.125,17.5 C6.125,17.0174375 5.7325625,16.625 5.25,16.625 L5.25,16.625 L5.25,16.625 Z M21.4375,14.875 C21.4375,15.1165 21.2415,15.3125 21,15.3125 L18.375,15.3125 C18.1335,15.3125 17.9375,15.1165 17.9375,14.875 L17.9375,12.25 C17.9375,12.0085 18.1335,11.8125 18.375,11.8125 L21,11.8125 C21.2415,11.8125 21.4375,12.0085 21.4375,12.25 L21.4375,14.875 L21.4375,14.875 Z M21,11.375 L18.375,11.375 C17.8924375,11.375 17.5,11.7674375 17.5,12.25 L17.5,14.875 C17.5,15.3575625 17.8924375,15.75 18.375,15.75 L21,15.75 C21.4825625,15.75 21.875,15.3575625 21.875,14.875 L21.875,12.25 C21.875,11.7674375 21.4825625,11.375 21,11.375 L21,11.375 L21,11.375 Z M16.1875,14.875 C16.1875,15.1165 15.9915,15.3125 15.75,15.3125 L13.125,15.3125 C12.8835,15.3125 12.6875,15.1165 12.6875,14.875 L12.6875,12.25 C12.6875,12.0085 12.8835,11.8125 13.125,11.8125 L15.75,11.8125 C15.9915,11.8125 16.1875,12.0085 16.1875,12.25 L16.1875,14.875 L16.1875,14.875 Z M15.75,11.375 L13.125,11.375 C12.6424375,11.375 12.25,11.7674375 12.25,12.25 L12.25,14.875 C12.25,15.3575625 12.6424375,15.75 13.125,15.75 L15.75,15.75 C16.2325625,15.75 16.625,15.3575625 16.625,14.875 L16.625,12.25 C16.625,11.7674375 16.2325625,11.375 15.75,11.375 L15.75,11.375 L15.75,11.375 Z M10.9375,14.875 C10.9375,15.1165 10.7415,15.3125 10.5,15.3125 L7.875,15.3125 C7.6335,15.3125 7.4375,15.1165 7.4375,14.875 L7.4375,12.25 C7.4375,12.0085 7.6335,11.8125 7.875,11.8125 L10.5,11.8125 C10.7415,11.8125 10.9375,12.0085 10.9375,12.25 L10.9375,14.875 L10.9375,14.875 Z M10.5,11.375 L7.875,11.375 C7.3924375,11.375 7,11.7674375 7,12.25 L7,14.875 C7,15.3575625 7.3924375,15.75 7.875,15.75 L10.5,15.75 C10.9825625,15.75 11.375,15.3575625 11.375,14.875 L11.375,12.25 C11.375,11.7674375 10.9825625,11.375 10.5,11.375 L10.5,11.375 L10.5,11.375 Z M5.6875,14.875 C5.6875,15.1165 5.4915,15.3125 5.25,15.3125 L2.625,15.3125 C2.3835,15.3125 2.1875,15.1165 2.1875,14.875 L2.1875,12.25 C2.1875,12.0085 2.3835,11.8125 2.625,11.8125 L5.25,11.8125 C5.4915,11.8125 5.6875,12.0085 5.6875,12.25 L5.6875,14.875 L5.6875,14.875 Z M5.25,11.375 L2.625,11.375 C2.1424375,11.375 1.75,11.7674375 1.75,12.25 L1.75,14.875 C1.75,15.3575625 2.1424375,15.75 2.625,15.75 L5.25,15.75 C5.7325625,15.75 6.125,15.3575625 6.125,14.875 L6.125,12.25 C6.125,11.7674375 5.7325625,11.375 5.25,11.375 L5.25,11.375 L5.25,11.375 Z M21.4375,9.625 C21.4375,9.8665 21.2415,10.0625 21,10.0625 L18.375,10.0625 C18.1335,10.0625 17.9375,9.8665 17.9375,9.625 L17.9375,7 C17.9375,6.7585 18.1335,6.5625 18.375,6.5625 L21,6.5625 C21.2415,6.5625 21.4375,6.7585 21.4375,7 L21.4375,9.625 L21.4375,9.625 Z M21,6.125 L18.375,6.125 C17.8924375,6.125 17.5,6.5174375 17.5,7 L17.5,9.625 C17.5,10.1075625 17.8924375,10.5 18.375,10.5 L21,10.5 C21.4825625,10.5 21.875,10.1075625 21.875,9.625 L21.875,7 C21.875,6.5174375 21.4825625,6.125 21,6.125 L21,6.125 L21,6.125 Z M16.1875,9.625 C16.1875,9.8665 15.9915,10.0625 15.75,10.0625 L13.125,10.0625 C12.8835,10.0625 12.6875,9.8665 12.6875,9.625 L12.6875,7 C12.6875,6.7585 12.8835,6.5625 13.125,6.5625 L15.75,6.5625 C15.9915,6.5625 16.1875,6.7585 16.1875,7 L16.1875,9.625 L16.1875,9.625 Z M15.75,6.125 L13.125,6.125 C12.6424375,6.125 12.25,6.5174375 12.25,7 L12.25,9.625 C12.25,10.1075625 12.6424375,10.5 13.125,10.5 L15.75,10.5 C16.2325625,10.5 16.625,10.1075625 16.625,9.625 L16.625,7 C16.625,6.5174375 16.2325625,6.125 15.75,6.125 L15.75,6.125 L15.75,6.125 Z M10.9375,9.625 C10.9375,9.8665 10.7415,10.0625 10.5,10.0625 L7.875,10.0625 C7.6335,10.0625 7.4375,9.8665 7.4375,9.625 L7.4375,7 C7.4375,6.7585 7.6335,6.5625 7.875,6.5625 L10.5,6.5625 C10.7415,6.5625 10.9375,6.7585 10.9375,7 L10.9375,9.625 L10.9375,9.625 Z M10.5,6.125 L7.875,6.125 C7.3924375,6.125 7,6.5174375 7,7 L7,9.625 C7,10.1075625 7.3924375,10.5 7.875,10.5 L10.5,10.5 C10.9825625,10.5 11.375,10.1075625 11.375,9.625 L11.375,7 C11.375,6.5174375 10.9825625,6.125 10.5,6.125 L10.5,6.125 L10.5,6.125 Z M5.6875,9.625 C5.6875,9.8665 5.4915,10.0625 5.25,10.0625 L2.625,10.0625 C2.3835,10.0625 2.1875,9.8665 2.1875,9.625 L2.1875,7 C2.1875,6.7585 2.3835,6.5625 2.625,6.5625 L5.25,6.5625 C5.4915,6.5625 5.6875,6.7585 5.6875,7 L5.6875,9.625 L5.6875,9.625 Z M5.25,6.125 L2.625,6.125 C2.1424375,6.125 1.75,6.5174375 1.75,7 L1.75,9.625 C1.75,10.1075625 2.1424375,10.5 2.625,10.5 L5.25,10.5 C5.7325625,10.5 6.125,10.1075625 6.125,9.625 L6.125,7 C6.125,6.5174375 5.7325625,6.125 5.25,6.125 L5.25,6.125 L5.25,6.125 Z"></path>
        </g>
    </g>
</svg>
