<svg width="28px" height="28px" viewBox="28 0 28 28" version="1.1" xmlns="http://www.w3.org/2000/svg" xmlns:xlink="http://www.w3.org/1999/xlink">
    <defs></defs>
    <g id="Group" stroke="none" stroke-width="1" fill="none" fill-rule="evenodd" transform="translate(28.000000, 0.000000)">
        <g id="Shape" fill="#000000">
            <path d="M27.125,11.375 L24.9375,11.375 L24.0625,11.375 L23.625,11.375 L22.75,11.375 L21,11.375 L20.125,11.375 L19.6875,11.375 L18.8125,11.375 L17.0625,11.375 L16.1875,11.375 L15.75,11.375 L14.875,11.375 L12.25,11.375 L11.8125,11.375 L9.1875,11.375 L8.3125,11.375 L7.875,11.375 L7,11.375 L5.25,11.375 L4.375,11.375 L3.9375,11.375 L3.0625,11.375 L0.875,11.375 L0.875,2.1875 C0.875,1.463875 1.463875,0.875 2.1875,0.875 L25.8125,0.875 C26.536125,0.875 27.125,1.463875 27.125,2.1875 L27.125,11.375 L27.125,11.375 Z M27.125,25.8125 C27.125,26.536125 26.536125,27.125 25.8125,27.125 L24.0625,27.125 L24.0625,21 L24.5,21 C24.740625,21 24.9375,20.803125 24.9375,20.5625 L24.9375,11.8125 L27.125,11.8125 L27.125,25.8125 L27.125,25.8125 Z M23.625,27.125 L20.125,27.125 L20.125,21 L20.5625,21 C20.803125,21 21,20.803125 21,20.5625 L21,11.8125 L22.75,11.8125 L22.75,20.5625 C22.75,20.803125 22.946875,21 23.1875,21 L23.625,21 L23.625,27.125 L23.625,27.125 Z M19.6875,27.125 L16.1875,27.125 L16.1875,21 L16.625,21 C16.865625,21 17.0625,20.803125 17.0625,20.5625 L17.0625,11.8125 L18.8125,11.8125 L18.8125,20.5625 C18.8125,20.803125 19.009375,21 19.25,21 L19.6875,21 L19.6875,27.125 L19.6875,27.125 Z M15.75,27.125 L12.25,27.125 L12.25,11.8125 L14.875,11.8125 L14.875,20.5625 C14.875,20.803125 15.071875,21 15.3125,21 L15.75,21 L15.75,27.125 L15.75,27.125 Z M11.8125,27.125 L8.3125,27.125 L8.3125,21 L8.75,21 C8.990625,21 9.1875,20.803125 9.1875,20.5625 L9.1875,11.8125 L11.8125,11.8125 L11.8125,27.125 L11.8125,27.125 Z M7.875,27.125 L4.375,27.125 L4.375,21 L4.8125,21 C5.053125,21 5.25,20.803125 5.25,20.5625 L5.25,11.8125 L7,11.8125 L7,20.5625 C7,20.803125 7.196875,21 7.4375,21 L7.875,21 L7.875,27.125 L7.875,27.125 Z M3.9375,27.125 L2.1875,27.125 C1.463875,27.125 0.875,26.536125 0.875,25.8125 L0.875,11.8125 L3.0625,11.8125 L3.0625,20.5625 C3.0625,20.803125 3.259375,21 3.5,21 L3.9375,21 L3.9375,27.125 L3.9375,27.125 Z M25.8125,0 L2.1875,0 C0.9795625,0 0,0.9795625 0,2.1875 L0,11.375 L0,25.375 L0,25.8125 C0,27.0204375 0.9795625,28 2.1875,28 L2.625,28 L3.9375,28 L4.375,28 L7.875,28 L8.3125,28 L11.8125,28 L12.25,28 L15.75,28 L16.1875,28 L19.6875,28 L20.125,28 L23.625,28 L24.0625,28 L25.375,28 L25.8125,28 C27.0204375,28 28,27.0204375 28,25.8125 L28,25.375 L28,11.375 L28,2.1875 C28,0.9795625 27.0204375,0 25.8125,0 L25.8125,0 L25.8125,0 Z M6.5625,3.5 L7.4375,3.5 C7.678125,3.5 7.875,3.303125 7.875,3.0625 C7.875,2.821875 7.678125,2.625 7.4375,2.625 L6.5625,2.625 C6.321875,2.625 6.125,2.821875 6.125,3.0625 C6.125,3.303125 6.321875,3.5 6.5625,3.5 L6.5625,3.5 L6.5625,3.5 Z M4.8125,3.5 C5.054,3.5 5.25,3.304 5.25,3.0625 C5.25,2.821 5.054,2.625 4.8125,2.625 C4.571,2.625 4.375,2.821 4.375,3.0625 C4.375,3.304 4.571,3.5 4.8125,3.5 L4.8125,3.5 L4.8125,3.5 Z M3.0625,3.5 C3.304,3.5 3.5,3.304 3.5,3.0625 C3.5,2.821 3.304,2.625 3.0625,2.625 C2.821,2.625 2.625,2.821 2.625,3.0625 C2.625,3.304 2.821,3.5 3.0625,3.5 L3.0625,3.5 L3.0625,3.5 Z M22.75,2.84375 C22.75,2.723 22.652,2.625 22.53125,2.625 C22.4105,2.625 22.3125,2.723 22.3125,2.84375 L22.3125,5.6875 L21.875,5.6875 L21.875,6.5625 L22.3125,6.5625 L22.3125,9.40625 C22.3125,9.527 22.4105,9.625 22.53125,9.625 C22.652,9.625 22.75,9.527 22.75,9.40625 L22.75,6.5625 L23.1875,6.5625 L23.1875,5.6875 L22.75,5.6875 L22.75,2.84375 L22.75,2.84375 Z M25.375,2.84375 C25.375,2.723 25.277,2.625 25.15625,2.625 C25.0355,2.625 24.9375,2.723 24.9375,2.84375 L24.9375,5.6875 L24.5,5.6875 L24.5,6.5625 L24.9375,6.5625 L24.9375,9.40625 C24.9375,9.527 25.0355,9.625 25.15625,9.625 C25.277,9.625 25.375,9.527 25.375,9.40625 L25.375,6.5625 L25.8125,6.5625 L25.8125,5.6875 L25.375,5.6875 L25.375,2.84375 L25.375,2.84375 Z M17.71875,8.3125 L18.7901875,8.3125 C18.6886875,8.81125 18.2468125,9.1875 17.71875,9.1875 C17.115875,9.1875 16.625,8.696625 16.625,8.09375 C16.625,7.490875 17.115875,7 17.71875,7 C18.2468125,7 18.6886875,7.37625 18.7901875,7.875 L17.71875,7.875 C17.598,7.875 17.5,7.973 17.5,8.09375 C17.5,8.2145 17.598,8.3125 17.71875,8.3125 L17.71875,8.3125 L17.71875,8.3125 Z M17.71875,6.5625 C16.8730625,6.5625 16.1875,7.2480625 16.1875,8.09375 C16.1875,8.9394375 16.8730625,9.625 17.71875,9.625 C18.5644375,9.625 19.25,8.9394375 19.25,8.09375 C19.25,7.2480625 18.5644375,6.5625 17.71875,6.5625 L17.71875,6.5625 L17.71875,6.5625 Z M13.78125,8.3125 L14.8526875,8.3125 C14.7511875,8.81125 14.3093125,9.1875 13.78125,9.1875 C13.178375,9.1875 12.6875,8.696625 12.6875,8.09375 C12.6875,7.490875 13.178375,7 13.78125,7 C14.3093125,7 14.7511875,7.37625 14.8526875,7.875 L13.78125,7.875 C13.6605,7.875 13.5625,7.973 13.5625,8.09375 C13.5625,8.2145 13.6605,8.3125 13.78125,8.3125 L13.78125,8.3125 L13.78125,8.3125 Z M13.78125,6.5625 C12.9355625,6.5625 12.25,7.2480625 12.25,8.09375 C12.25,8.9394375 12.9355625,9.625 13.78125,9.625 C14.6269375,9.625 15.3125,8.9394375 15.3125,8.09375 C15.3125,7.2480625 14.6269375,6.5625 13.78125,6.5625 L13.78125,6.5625 L13.78125,6.5625 Z M17.9375,5.2276875 L17.9375,4.15625 C17.9375,4.0355 17.8395,3.9375 17.71875,3.9375 C17.598,3.9375 17.5,4.0355 17.5,4.15625 L17.5,5.2276875 C17.00125,5.1261875 16.625,4.6843125 16.625,4.15625 C16.625,3.553375 17.115875,3.0625 17.71875,3.0625 C18.321625,3.0625 18.8125,3.553375 18.8125,4.15625 C18.8125,4.6843125 18.43625,5.1261875 17.9375,5.2276875 L17.9375,5.2276875 L17.9375,5.2276875 Z M17.71875,2.625 C16.8730625,2.625 16.1875,3.3105625 16.1875,4.15625 C16.1875,5.0019375 16.8730625,5.6875 17.71875,5.6875 C18.5644375,5.6875 19.25,5.0019375 19.25,4.15625 C19.25,3.3105625 18.5644375,2.625 17.71875,2.625 L17.71875,2.625 L17.71875,2.625 Z M9.1875,8.75 C9.1875,8.9910625 8.9910625,9.1875 8.75,9.1875 L3.5,9.1875 C3.2589375,9.1875 3.0625,8.9910625 3.0625,8.75 L3.0625,5.25 C3.0625,5.0089375 3.2589375,4.8125 3.5,4.8125 L8.75,4.8125 C8.9910625,4.8125 9.1875,5.0089375 9.1875,5.25 L9.1875,8.75 L9.1875,8.75 Z M8.75,4.375 L3.5,4.375 C3.0165625,4.375 2.625,4.7665625 2.625,5.25 L2.625,8.75 C2.625,9.2334375 3.0165625,9.625 3.5,9.625 L8.75,9.625 C9.2334375,9.625 9.625,9.2334375 9.625,8.75 L9.625,5.25 C9.625,4.7665625 9.2334375,4.375 8.75,4.375 L8.75,4.375 L8.75,4.375 Z M13.78125,5.25 C13.178375,5.25 12.6875,4.759125 12.6875,4.15625 C12.6875,3.6281875 13.06375,3.1863125 13.5625,3.0848125 L13.5625,4.15625 C13.5625,4.277 13.6605,4.375 13.78125,4.375 C13.902,4.375 14,4.277 14,4.15625 L14,3.0848125 C14.49875,3.1863125 14.875,3.6281875 14.875,4.15625 C14.875,4.759125 14.384125,5.25 13.78125,5.25 L13.78125,5.25 L13.78125,5.25 Z M13.78125,2.625 C12.9355625,2.625 12.25,3.3105625 12.25,4.15625 C12.25,5.0019375 12.9355625,5.6875 13.78125,5.6875 C14.6269375,5.6875 15.3125,5.0019375 15.3125,4.15625 C15.3125,3.3105625 14.6269375,2.625 13.78125,2.625 L13.78125,2.625 L13.78125,2.625 Z"></path>
        </g>
    </g>
</svg>
