<svg width="28px" height="28px" viewBox="280 843 28 28" version="1.1" xmlns="http://www.w3.org/2000/svg" xmlns:xlink="http://www.w3.org/1999/xlink">
    <defs></defs>
    <path d="M291.657692,863.835949 C291.657692,864.422154 291.843641,864.900308 292.214462,865.279026 C292.593897,865.649846 293.064872,865.843333 293.629179,865.843333 C294.201385,865.843333 294.679538,865.649846 295.057538,865.279026 C295.443077,864.900308 295.636564,864.422154 295.636564,863.835949 C295.636564,863.256923 295.443077,862.77159 295.057538,862.400769 C294.679538,862.021333 294.201385,861.835744 293.629179,861.835744 C293.064872,861.835744 292.593538,862.021692 292.214462,862.400769 C291.843282,862.77159 291.657692,863.256923 291.657692,863.835949 L291.657692,863.835949 Z M292.335436,859.857077 L295.029179,859.857077 C294.957026,859.307487 294.993282,859.035385 295.158051,858.593128 C295.328564,858.150154 295.550051,857.728718 295.828974,857.336718 C296.100359,856.942564 296.414462,856.564923 296.764821,856.200205 C297.106923,855.842667 297.435744,855.463949 297.735846,855.071949 C298.035949,854.678513 298.292615,854.264256 298.492923,853.828821 C298.699692,853.385128 298.799846,852.899795 298.799846,852.350205 C298.799846,851.642667 298.678513,851.029179 298.443026,850.500051 C298.199641,849.964462 297.856821,849.521128 297.414564,849.164308 C296.970872,848.79959 296.442103,848.528923 295.842615,848.350154 C295.23559,848.171385 294.578667,848.078051 293.863949,848.078051 C292.885026,848.078051 292.007333,848.292718 291.228359,848.713795 C290.442564,849.128051 289.763744,849.663641 289.199436,850.321641 L290.906718,851.835436 C291.292256,851.421179 291.71441,851.099897 292.155949,850.857231 C292.606821,850.621026 293.099692,850.499692 293.649282,850.499692 C294.328821,850.499692 294.857231,850.685641 295.24241,851.063282 C295.621128,851.442718 295.814615,851.93559 295.814615,852.556615 C295.814615,852.950051 295.714462,853.313692 295.521692,853.656513 C295.321026,854.000051 295.078,854.349333 294.785436,854.699692 C294.492513,855.048974 294.17841,855.414051 293.850308,855.778051 C293.520769,856.14959 293.228564,856.54159 292.971179,856.970564 C292.714513,857.399538 292.521026,857.87159 292.385692,858.384564 C292.250718,858.900051 292.243538,859.24359 292.335436,859.857077 L292.335436,859.857077 Z M280,857 C280,864.729077 286.271641,871 294,871 C301.729077,871 308,864.729077 308,857 C308,849.270923 301.729077,843 294,843 C286.271641,843 280,849.270923 280,857 L280,857 Z M282.578872,857 C282.578872,850.692821 287.692821,845.578154 294,845.578154 C300.307179,845.578154 305.421846,850.692821 305.421846,857 C305.421846,863.307179 300.307179,868.421846 294,868.421846 C287.692821,868.421846 282.578872,863.307179 282.578872,857 L282.578872,857 Z" id="Shape" stroke="none" fill="#000000" fill-rule="evenodd"></path>
</svg>
