<svg width="18px" height="28px" viewBox="32 0 18 28" version="1.1" xmlns="http://www.w3.org/2000/svg" xmlns:xlink="http://www.w3.org/1999/xlink">
    <defs></defs>
    <g id="Group" stroke="none" stroke-width="1" fill="none" fill-rule="evenodd" transform="translate(32.000000, 0.000000)">
        <path d="M8.93076923,20.44 C12.1846154,20.44 14.8153846,17.78 14.8153846,14.49 L14.8153846,5.95 C14.8153846,2.66 12.1846154,0 8.93076923,0 C5.67692308,0 3.04615385,2.66 3.04615385,5.95 L3.04615385,14.49 C3.04615385,17.78 5.67692308,20.44 8.93076923,20.44 L8.93076923,20.44 Z M4.43076923,13.72 L7.2,13.72 C7.61538462,13.72 7.89230769,13.44 7.89230769,13.02 C7.89230769,12.6 7.61538462,12.32 7.2,12.32 L4.43076923,12.32 L4.43076923,10.92 L7.2,10.92 C7.61538462,10.92 7.89230769,10.64 7.89230769,10.22 C7.89230769,9.8 7.61538462,9.52 7.2,9.52 L4.43076923,9.52 L4.43076923,8.12 L7.2,8.12 C7.61538462,8.12 7.89230769,7.84 7.89230769,7.42 C7.89230769,7 7.61538462,6.72 7.2,6.72 L4.43076923,6.72 L4.43076923,5.95 C4.43076923,3.43 6.43846154,1.4 8.93076923,1.4 C11.4230769,1.4 13.4307692,3.43 13.4307692,5.95 L13.4307692,6.72 L10.6615385,6.72 C10.2461538,6.72 9.96923077,7 9.96923077,7.42 C9.96923077,7.77 10.3153846,8.12 10.6615385,8.12 L13.4307692,8.12 L13.4307692,9.52 L10.6615385,9.52 C10.2461538,9.52 9.96923077,9.8 9.96923077,10.22 C9.96923077,10.57 10.3153846,10.92 10.6615385,10.92 L13.4307692,10.92 L13.4307692,12.32 L10.6615385,12.32 C10.2461538,12.32 9.96923077,12.6 9.96923077,13.02 C9.96923077,13.37 10.3153846,13.72 10.6615385,13.72 L13.4307692,13.72 L13.4307692,14.49 C13.4307692,17.01 11.4230769,19.04 8.93076923,19.04 C6.43846154,19.04 4.43076923,17.01 4.43076923,14.49 L4.43076923,13.72 L4.43076923,13.72 Z" id="Shape" fill="#000000"></path>
        <path d="M17.5846154,14.42 C17.5846154,14.07 17.2384615,13.72 16.8923077,13.72 C16.5461538,13.72 16.2,14.07 16.2,14.42 C16.2,18.48 12.9461538,21.77 8.93076923,21.77 C4.91538462,21.77 1.66153846,18.48 1.66153846,14.42 C1.66153846,14.07 1.31538462,13.72 0.969230769,13.72 C0.623076923,13.72 0.276923077,14.07 0.276923077,14.42 C0.276923077,19.04 3.80769231,22.82 8.23846154,23.17 L8.23846154,26.6 L3.73846154,26.6 C3.39230769,26.6 3.04615385,26.88 3.04615385,27.3 C3.04615385,27.72 3.39230769,28 3.73846154,28 L14.1230769,28 C14.4692308,28 14.8153846,27.72 14.8153846,27.3 C14.8153846,26.88 14.4692308,26.6 14.1230769,26.6 L9.62307692,26.6 L9.62307692,23.17 C14.0538462,22.82 17.5846154,19.04 17.5846154,14.42 L17.5846154,14.42 Z" id="Shape" fill="#000000"></path>
    </g>
</svg>
