<svg width="20px" height="20px" viewBox="1126 5 20 20" version="1.1" xmlns="http://www.w3.org/2000/svg" xmlns:xlink="http://www.w3.org/1999/xlink">
    <defs></defs>
    <path d="M1140.375,15 C1140.375,15.5833333 1139.91667,16.0416667 1139.33333,16.0416667 L1137.04167,16.0416667 L1137.04167,18.3333333 C1137.04167,18.9166667 1136.58333,19.375 1136,19.375 C1135.41667,19.375 1134.95833,18.9166667 1134.95833,18.3333333 L1134.95833,16.0416667 L1132.66667,16.0416667 C1132.08333,16.0416667 1131.625,15.5833333 1131.625,15 C1131.625,14.4166667 1132.08333,13.9583333 1132.66667,13.9583333 L1134.95833,13.9583333 L1134.95833,11.6666667 C1134.95833,11.0833333 1135.41667,10.625 1136,10.625 C1136.58333,10.625 1137.04167,11.0833333 1137.04167,11.6666667 L1137.04167,13.9583333 L1139.33333,13.9583333 C1139.91667,13.9583333 1140.375,14.4166667 1140.375,15 L1140.375,15 Z M1146,15 C1146,20.5416667 1141.54167,25 1136,25 C1130.45833,25 1126,20.5416667 1126,15 C1126,9.45833333 1130.45833,5 1136,5 C1141.54167,5 1146,9.45833333 1146,15 L1146,15 Z M1143.91667,15 C1143.91667,10.625 1140.375,7.08333333 1136,7.08333333 C1131.625,7.08333333 1128.08333,10.625 1128.08333,15 C1128.08333,19.375 1131.625,22.9166667 1136,22.9166667 C1140.375,22.9166667 1143.91667,19.375 1143.91667,15 L1143.91667,15 Z" id="Shape-Copy-6" stroke="none" fill="#000000" fill-rule="evenodd"></path>
</svg>
