<!-- Generator: Adobe Illustrator 19.1.0, SVG Export Plug-In  -->
<svg version="1.1"
	 xmlns="http://www.w3.org/2000/svg" xmlns:xlink="http://www.w3.org/1999/xlink" xmlns:a="http://ns.adobe.com/AdobeSVGViewerExtensions/3.0/"
	 x="0px" y="0px" width="28px" height="28px" viewBox="0 0 28 28" style="enable-background:new 0 0 28 28;" xml:space="preserve">
<defs>
</defs>
<g>
	<g>
		<path d="M11.6,28c-0.8-0.1-1.4-1-1.2-1.8l0,0c0.1-0.8,0.9-1.4,1.8-1.2l0,0c0.8,0.1,1.4,1,1.2,1.8l0,0c-0.1,0.7-0.8,1.3-1.5,1.3
			l0,0C11.8,28,11.7,28,11.6,28z M14.7,26.7c-0.1-0.8,0.4-1.6,1.2-1.8l0,0c0.8-0.1,1.6,0.4,1.8,1.2l0,0c0.1,0.8-0.4,1.6-1.2,1.8l0,0
			l0,0l0,0c-0.1,0-0.2,0-0.3,0l0,0C15.5,28,14.8,27.5,14.7,26.7z M7,26.3L7,26.3L7,26.3c-0.7-0.4-1-1.4-0.6-2.1l0,0
			c0.4-0.7,1.4-1,2.1-0.6l0,0c0.7,0.4,1,1.4,0.6,2.1l0,0c-0.3,0.5-0.8,0.8-1.3,0.8l0,0C7.5,26.5,7.2,26.4,7,26.3z M18.9,25.7
			c-0.4-0.7-0.2-1.7,0.6-2.1l0,0c0.7-0.4,1.6-0.2,2.1,0.6l0,0c0.4,0.7,0.2,1.7-0.6,2.1l0,0l0,0l0,0c-0.2,0.1-0.5,0.2-0.8,0.2l0,0
			C19.7,26.5,19.2,26.2,18.9,25.7z M3.3,23.1c-0.5-0.7-0.5-1.6,0.2-2.2l0,0c0.6-0.5,1.6-0.5,2.1,0.2l0,0c0.5,0.7,0.5,1.6-0.2,2.2
			l0,0c-0.3,0.2-0.6,0.4-1,0.4l0,0C4,23.7,3.6,23.5,3.3,23.1z M22.6,23.3c-0.6-0.5-0.7-1.5-0.2-2.2l0,0c0.5-0.7,1.5-0.7,2.1-0.2l0,0
			c0.6,0.5,0.7,1.5,0.2,2.2l0,0l0,0l0,0c-0.3,0.4-0.7,0.5-1.2,0.5l0,0C23.2,23.7,22.9,23.5,22.6,23.3z M0.9,18.9
			c-0.3-0.8,0.1-1.7,0.9-2l0,0c0.8-0.3,1.6,0.1,1.9,0.9l0,0c0.3,0.8-0.1,1.7-0.9,2l0,0c-0.2,0.1-0.4,0.1-0.5,0.1l0,0
			C1.6,19.9,1.1,19.5,0.9,18.9z M25.2,19.8c-0.8-0.3-1.2-1.2-0.9-2l0,0c0.3-0.8,1.1-1.2,1.9-0.9l0,0c0.8,0.3,1.2,1.2,0.9,2l0,0
			c-0.2,0.6-0.8,1-1.4,1l0,0C25.6,19.9,25.4,19.8,25.2,19.8z M0,14c0-0.8,0.7-1.5,1.5-1.5l0,0C2.3,12.5,3,13.2,3,14l0,0
			c0,0.9-0.7,1.5-1.5,1.5l0,0C0.7,15.6,0,14.9,0,14z M25,14L25,14L25,14L25,14C25,14,25,14,25,14L25,14c0-0.9,0.7-1.6,1.5-1.6l0,0
			c0.9,0,1.5,0.7,1.5,1.5l0,0v0l0,0v0l0,0c0,0.8-0.7,1.5-1.5,1.5l0,0C25.7,15.6,25,14.9,25,14z M3,14L3,14L3,14L3,14z M28,14L28,14
			L28,14L28,14L28,14L28,14z M1.7,11.2c-0.8-0.3-1.2-1.2-0.9-2l0,0l0,0l0,0C1.1,8.4,2,8,2.8,8.3l0,0c0.8,0.3,1.2,1.2,0.9,2l0,0
			c-0.2,0.6-0.8,1-1.4,1l0,0C2.1,11.2,1.9,11.2,1.7,11.2z M24.3,10.2c-0.3-0.8,0.1-1.7,0.9-2l0,0c0.8-0.3,1.6,0.1,1.9,0.9l0,0
			c0.3,0.8-0.1,1.7-0.9,2l0,0c-0.2,0.1-0.4,0.1-0.5,0.1l0,0C25.1,11.2,24.5,10.8,24.3,10.2z M3.4,7.1C2.8,6.6,2.7,5.6,3.2,4.9l0,0
			l0,0l0,0c0.5-0.7,1.5-0.7,2.1-0.2l0,0C6,5.3,6.1,6.2,5.6,6.9l0,0C5.3,7.2,4.8,7.4,4.4,7.4l0,0C4.1,7.4,3.7,7.3,3.4,7.1z M22.4,6.9
			c-0.5-0.7-0.5-1.6,0.2-2.2l0,0c0.6-0.5,1.6-0.5,2.1,0.2l0,0c0.5,0.7,0.5,1.6-0.2,2.2l0,0c-0.3,0.2-0.6,0.4-1,0.4l0,0
			C23.1,7.4,22.7,7.2,22.4,6.9z M6.4,3.9C6,3.1,6.3,2.2,7,1.8l0,0l0,0l0,0c0.7-0.4,1.6-0.2,2.1,0.6l0,0C9.5,3.1,9.2,4,8.5,4.4l0,0
			C8.3,4.6,8,4.7,7.7,4.7l0,0C7.2,4.6,6.7,4.3,6.4,3.9z M19.5,4.4c-0.7-0.4-1-1.4-0.6-2.1l0,0c0.4-0.7,1.4-1,2.1-0.6l0,0
			c0.7,0.4,1,1.4,0.6,2.1l0,0c-0.3,0.5-0.8,0.8-1.3,0.8l0,0C20,4.6,19.7,4.5,19.5,4.4z M10.3,1.8c-0.1-0.8,0.4-1.6,1.2-1.8l0,0
			c0.8-0.1,1.6,0.4,1.8,1.2l0,0c0.1,0.8-0.4,1.6-1.2,1.8l0,0c-0.1,0-0.2,0-0.3,0l0,0C11.1,3.1,10.4,2.6,10.3,1.8z M15.9,3.1
			c-0.8-0.1-1.4-1-1.2-1.8l0,0c0.1-0.8,0.9-1.4,1.8-1.2l0,0l0,0l0,0c0.8,0.1,1.4,1,1.2,1.8l0,0c-0.1,0.7-0.8,1.3-1.5,1.3l0,0
			C16.1,3.1,16,3.1,15.9,3.1z"/>
	</g>
	<g>
		<path d="M12.6,21.5c0-0.7,0.6-1.4,1.4-1.4l0,0c0.7,0,1.4,0.6,1.4,1.4l0,0c0,0.7-0.6,1.4-1.4,1.4l0,0
			C13.3,22.8,12.6,22.2,12.6,21.5z M9.7,21.7L9.7,21.7L9.7,21.7c-0.6-0.4-0.9-1.2-0.5-1.9l0,0c0.4-0.7,1.2-0.9,1.8-0.5l0,0
			c0.6,0.4,0.9,1.2,0.5,1.9l0,0c-0.2,0.4-0.7,0.7-1.2,0.7l0,0C10.1,21.9,9.9,21.8,9.7,21.7z M16.5,21.2c-0.4-0.7-0.1-1.5,0.5-1.9
			l0,0c0.6-0.4,1.5-0.1,1.8,0.5l0,0c0.4,0.7,0.1,1.5-0.5,1.9l0,0c-0.2,0.1-0.4,0.2-0.7,0.2l0,0C17.2,21.9,16.8,21.6,16.5,21.2z
			 M6.5,18.4L6.5,18.4L6.5,18.4C6.1,17.8,6.3,17,7,16.6l0,0c0.6-0.4,1.5-0.1,1.8,0.5l0,0c0.4,0.7,0.1,1.5-0.5,1.9l0,0
			c-0.2,0.1-0.4,0.2-0.7,0.2l0,0C7.1,19.1,6.7,18.9,6.5,18.4z M19.7,18.9c-0.6-0.4-0.9-1.2-0.5-1.9l0,0c0.4-0.7,1.2-0.9,1.8-0.5l0,0
			c0.6,0.4,0.9,1.2,0.5,1.9l0,0c-0.2,0.4-0.7,0.7-1.2,0.7l0,0C20.2,19.1,19.9,19.1,19.7,18.9z M5.3,14c0-0.7,0.6-1.4,1.4-1.4l0,0
			C7.4,12.7,8,13.3,8,14l0,0c0,0.7-0.6,1.4-1.4,1.4l0,0C5.9,15.4,5.3,14.8,5.3,14z M20,14L20,14L20,14C20,14,20,14,20,14L20,14
			c0-0.8,0.6-1.4,1.4-1.4l0,0c0.7,0,1.4,0.6,1.4,1.4l0,0c0,0,0,0,0,0l0,0c0,0,0,0,0,0l0,0l0,0l0,0c0,0.7-0.6,1.4-1.4,1.4l0,0
			C20.6,15.4,20,14.8,20,14z M6.9,11.5c-0.6-0.4-0.9-1.2-0.5-1.9l0,0l0,0l0,0c0.4-0.7,1.2-0.9,1.8-0.5l0,0c0.6,0.4,0.9,1.2,0.5,1.9
			l0,0c-0.2,0.4-0.7,0.7-1.2,0.7l0,0C7.4,11.7,7.1,11.6,6.9,11.5z M19.2,10.9c-0.4-0.7-0.1-1.5,0.5-1.9l0,0c0.6-0.4,1.5-0.1,1.8,0.5
			l0,0l0,0l0,0c0.4,0.7,0.1,1.5-0.5,1.9l0,0c-0.2,0.1-0.4,0.2-0.7,0.2l0,0C19.9,11.6,19.5,11.4,19.2,10.9z M9.1,8.3
			C8.7,7.6,9,6.8,9.6,6.4l0,0l0,0l0,0c0.6-0.4,1.5-0.1,1.8,0.5l0,0c0.4,0.7,0.1,1.5-0.5,1.9l0,0c-0.2,0.1-0.4,0.2-0.7,0.2l0,0
			C9.8,8.9,9.4,8.7,9.1,8.3z M17,8.7c-0.6-0.4-0.9-1.2-0.5-1.9l0,0c0.4-0.7,1.2-0.9,1.8-0.5l0,0l0,0l0,0c0.6,0.4,0.9,1.2,0.5,1.9
			l0,0c-0.2,0.4-0.7,0.7-1.2,0.7l0,0C17.4,8.9,17.2,8.8,17,8.7z M12.6,6.6c0-0.7,0.6-1.4,1.4-1.4l0,0c0.7,0,1.4,0.6,1.4,1.4l0,0
			c0,0.7-0.6,1.4-1.4,1.4l0,0l0,0l0,0C13.2,7.9,12.6,7.3,12.6,6.6z"/>
	</g>
	<g>
		<ellipse cx="14" cy="14" rx="2.6" ry="2.6"/>
	</g>
</g>
</svg>
