<svg width="17px" height="17px" viewBox="150 671 17 17" version="1.1" xmlns="http://www.w3.org/2000/svg" xmlns:xlink="http://www.w3.org/1999/xlink">
    <path d="M166.325593,681.449214 C166.624316,681.449214 166.902239,681.206972 166.942879,680.910969 C166.942879,680.910969 167,680.494965 167,680.00024 C167,679.505515 166.942879,679.089511 166.942879,679.089511 C166.902079,678.793348 166.624316,678.551266 166.325593,678.551266 L164.781898,678.551266 C164.483015,678.551266 164.172612,678.360704 164.092291,678.127901 C164.01197,677.895099 163.901409,677.148211 164.112771,676.937009 L165.203982,675.845798 C165.415184,675.634436 165.431504,675.273793 165.240142,675.04419 L163.95629,673.760018 C163.726687,673.568496 163.366204,673.584816 163.154682,673.796178 L162.063471,674.887389 C161.852269,675.098751 161.500105,675.183872 161.281383,675.076671 C161.062501,674.96947 160.449214,674.517305 160.449214,674.218422 L160.449214,672.674727 C160.449214,672.375844 160.206972,672.098081 159.910969,672.057281 C159.910969,672.057281 159.494965,672 159.00024,672 C158.505515,672 158.089511,672.057281 158.089511,672.057281 C157.793348,672.097921 157.551106,672.375844 157.551106,672.674727 L157.551106,674.218422 C157.551106,674.517305 157.360704,674.827548 157.127741,674.908029 C156.894779,674.98835 156.148051,675.098911 155.936689,674.887549 L154.845478,673.796338 C154.634116,673.584976 154.273473,673.568656 154.04403,673.760018 L152.760018,675.04403 C152.568496,675.273633 152.584816,675.634276 152.796178,675.845638 L153.887229,676.936849 C154.098591,677.148211 154.183872,677.500215 154.076511,677.718937 C153.96915,677.937659 153.517145,678.551106 153.218262,678.551106 L151.674727,678.551106 C151.375844,678.551106 151.098081,678.793348 151.057281,679.089351 C151.057281,679.089351 151,679.505355 151,680.00008 C151,680.494965 151.057281,680.910809 151.057281,680.910809 C151.097921,681.206972 151.375844,681.449054 151.674727,681.449054 L153.218422,681.449054 C153.517305,681.449054 153.827548,681.639456 153.907869,681.872419 C153.98819,682.105221 154.098751,682.851949 153.887389,683.063311 L152.796338,684.154362 C152.584976,684.365724 152.568656,684.726367 152.760178,684.95597 L154.04403,686.240142 C154.273633,686.431504 154.634116,686.415344 154.845478,686.203982 L155.936689,685.112771 C156.148051,684.901569 156.500055,684.816288 156.718937,684.923489 C156.937819,685.03069 157.551106,685.482855 157.551106,685.781738 L157.551106,687.325433 C157.551106,687.624156 157.793348,687.902079 158.089511,687.942719 C158.089511,687.942719 158.505355,687.99984 159.00024,687.99984 C159.495125,687.99984 159.910969,687.942719 159.910969,687.942719 C160.207132,687.901919 160.449214,687.624156 160.449214,687.325433 L160.449214,685.781738 C160.449214,685.482855 160.639616,685.172452 160.872579,685.092131 C161.105541,685.01181 161.852269,684.901409 162.063631,685.112611 L163.154682,686.203822 C163.366044,686.415024 163.726687,686.431344 163.95629,686.239982 L165.240142,684.95629 C165.431504,684.726687 165.415344,684.366204 165.203822,684.154682 L164.112771,683.063631 C163.901409,682.852269 163.816128,682.500265 163.923489,682.281383 C164.03069,682.062501 164.482855,681.449214 164.781738,681.449214 L166.325593,681.449214 L166.325593,681.449214 Z M159.00008,682.928429 C157.382784,682.928429 156.071731,681.617536 156.071731,680.00008 C156.071731,678.382944 157.382784,677.071731 159.00008,677.071731 C160.617376,677.071731 161.928429,678.382784 161.928429,680.00008 C161.928429,681.617376 160.617376,682.928429 159.00008,682.928429 L159.00008,682.928429 Z" id="Shape-Copy-2" stroke="none" fill="#000000" fill-rule="evenodd"></path>
</svg>
