<svg version="1.1"
	 xmlns="http://www.w3.org/2000/svg" xmlns:xlink="http://www.w3.org/1999/xlink" xmlns:a="http://ns.adobe.com/AdobeSVGViewerExtensions/3.0/"
	 x="0px" y="0px" width="28px" height="28px" viewBox="0 0 28 28" style="enable-background:new 0 0 28 28;" xml:space="preserve">
<defs>
</defs>
<path d="M27.1,0.8c0,0,0-0.1,0-0.1c0,0-0.1-0.1-0.2-0.1c-0.1,0-0.1-0.1-0.2-0.1c-0.1-0.1-0.2-0.2-0.3-0.3c-0.1-0.1-0.2-0.1-0.3-0.2
	c-0.3,0.3-0.5,0.7-0.8,1c0,0,0,0,0-0.1c0,0,0.1-0.1,0.1-0.1c0,0-0.1,0-0.1,0c0,0,0-0.1,0-0.1c0,0,0-0.1,0-0.1c0,0-0.1-0.1-0.1-0.1
	c0-0.1-0.1-0.1-0.1-0.1c0,0-0.1,0-0.1,0.1c-0.1,0-0.1,0.1-0.1,0.1c0,0-0.1,0.1-0.1,0.1c0,0.1,0,0.1-0.1,0.2c0.1,0.1,0.2,0.1,0.3,0.2
	c0,0,0.1,0,0.1,0c0,0,0.1,0,0.1,0l0,0.1L25.2,1l0.1,0.1c-0.1,0.2-0.3,0.3-0.4,0.5c-0.1,0.1-0.1,0.1-0.2,0.2c0,0,0,0-0.1-0.1
	c0,0,0.1-0.1,0.1-0.1c0,0-0.1,0-0.1,0c0,0,0-0.1,0-0.1c0,0,0-0.1,0-0.1c0,0-0.1-0.1-0.1-0.1c0-0.1-0.1-0.1-0.1-0.1
	c0,0-0.1,0-0.1,0.1c-0.1,0-0.1,0.1-0.1,0.1c0,0-0.1,0.1-0.1,0.1c0,0.1,0,0.1-0.1,0.2c0.1,0.1,0.2,0.1,0.3,0.2c0,0,0.1,0,0.1,0
	c0,0,0.1,0,0.1,0l0,0.1l0.1-0.1l0.1,0.1C24.4,2,24.2,2.2,24,2.4c0,0,0,0,0,0c0,0,0.1-0.1,0.1-0.1c0,0-0.1,0-0.1,0c0,0,0-0.1,0-0.1
	c0,0,0-0.1,0-0.1c0,0-0.1-0.1-0.1-0.1c0-0.1-0.1-0.1-0.1-0.1c0,0-0.1,0-0.1,0.1c-0.1,0-0.1,0.1-0.1,0.1c0,0-0.1,0.1-0.1,0.1
	c0,0.1-0.1,0.1-0.1,0.2c0.1,0.1,0.2,0.1,0.3,0.2c0,0,0.1,0,0.1,0c0,0,0.1,0,0.1,0l0,0.1l0.1-0.1l0,0c-0.1,0.1-0.2,0.2-0.4,0.3
	c0,0.1,0,0.3,0,0.4c-0.1,0.2-0.2,0.4-0.3,0.4L12.8,13.8c-0.2,0.1-0.3,0.1-0.4,0.1c0,0-0.1,0-0.1,0c-0.1,0-0.2,0-0.3,0
	c-0.1,0-0.2-0.1-0.3-0.1c-0.1,0-0.2-0.1-0.2-0.3c0,0-0.1-0.1-0.1-0.2c0-0.2,0-0.3,0-0.4c0-0.2,0.1-0.3,0.1-0.5
	c0.1-0.2,0.1-0.3,0.1-0.4c0-0.1,0.1-0.3,0-0.6c-0.1-0.1-0.1-0.2-0.2-0.3c-0.1-0.1-0.1-0.1-0.1-0.1c0,0-0.2-0.1-0.4-0.1
	c-0.3-0.1-0.6,0-0.7,0c-0.3,0.1-0.4,0.2-0.6,0.3c-0.4,0.3-0.6,0.5-0.7,0.8c-0.1,0.2-0.3,0.4-0.4,0.8L8.1,14c0,0,0,0,0,0.1
	c-0.1,0.1-0.2,0.4-0.4,0.6C7.5,14.9,7.3,15,7.1,15c-0.1,0-0.2,0-0.2,0c-0.3,0-0.7,0.1-1.1,0.1c0,0-0.1,0-0.1,0c-0.4,0-1-0.1-1.6,0.1
	c-0.3,0.1-1.1,0.2-1.9,0.9c-0.3,0.2-0.7,0.6-1.1,1.1c-0.4,0.5-0.6,1-0.7,1.4C0.2,19,0,19.5,0,20.1c0,0.7,0,1.2,0.1,1.7
	c0,0,0,0,0,0.1c0.1,0.4,0.2,0.8,0.4,1.2c0.2,0.5,0.6,1.1,1.1,1.8c0.2,0.2,0.5,0.5,0.7,0.8c0.2,0.2,0.5,0.4,0.7,0.6
	c0.3,0.3,0.7,0.5,1.1,0.8c0.4,0.3,0.9,0.5,1.2,0.6c0,0,0.1,0,0.1,0C6.4,27.9,7.1,28,7.1,28C7.5,28,8,28,8.7,27.9
	c0.1,0,0.4-0.1,0.8-0.2c0.2-0.1,0.5-0.2,0.9-0.5c0.3-0.2,1.2-0.7,1.8-1.8c0-0.1,0.2-0.3,0.3-0.7c0.3-0.8,0.4-1.5,0.4-1.7
	c0,0,0,0,0-0.1c0-0.6,0-1.1,0-1.7c0-0.2,0-0.6,0.3-1c0,0,0.1-0.2,0.4-0.3c0.4-0.3,0.7-0.2,1.2-0.4c0.2-0.1,0.7-0.2,1.2-0.6
	c0.2-0.2,0.5-0.3,0.7-0.7c0.3-0.5,0.3-0.9,0.3-1c0-0.2,0-0.3-0.1-0.5c0,0-0.1-0.3-0.4-0.4c-0.1,0-0.2-0.1-0.2-0.1s-0.1,0-0.2,0
	c-0.2,0-0.4,0.1-0.6,0.2c-0.2,0.1-0.4,0.2-0.7,0.1c-0.1,0-0.2,0-0.3-0.1c0,0-0.3-0.1-0.4-0.5c0-0.1,0-0.1,0-0.1c0,0,0-0.1,0-0.1
	c0,0,0-0.1,0-0.3c0-0.1,0.1-0.2,0.1-0.3l0.1-0.1L24.4,4.7c0.1-0.1,0.2-0.2,0.4-0.3c0.2-0.1,0.3,0,0.4,0c0.1-0.1,0.2-0.2,0.4-0.4l0,0
	l-0.1,0.1l0.1,0c0,0,0,0.1,0,0.1c0,0,0,0.1,0,0.1c0.1,0.1,0.1,0.2,0.2,0.3c0,0,0.1,0,0.2-0.1c0,0,0.1-0.1,0.1-0.1
	c0,0,0.1-0.1,0.1-0.1c0-0.1,0-0.1,0.1-0.1c0,0-0.1-0.1-0.1-0.1c0,0-0.1-0.1-0.1-0.1c0,0-0.1,0-0.1,0c0,0-0.1,0-0.1,0
	c0,0,0-0.1,0-0.1c0,0-0.1,0.1-0.1,0.1c0,0,0,0,0,0c0.2-0.2,0.4-0.4,0.6-0.6l0.1,0.1l-0.1,0.1l0.1,0c0,0,0,0.1,0,0.1c0,0,0,0.1,0,0.1
	c0.1,0.1,0.1,0.2,0.2,0.3c0,0,0.1,0,0.2-0.1c0,0,0.1-0.1,0.1-0.1c0,0,0.1-0.1,0.1-0.1c0-0.1,0-0.1,0.1-0.1c0,0-0.1-0.1-0.1-0.1
	c0,0-0.1-0.1-0.1-0.1c0,0-0.1,0-0.1,0c0,0-0.1,0-0.1,0c0,0,0-0.1,0-0.1c0,0-0.1,0.1-0.1,0.1c0,0,0,0-0.1-0.1
	c0.1-0.1,0.1-0.1,0.2-0.2C26.6,3,26.8,2.9,27,2.7L27,2.8l-0.1,0.1l0.1,0c0,0,0,0.1,0,0.1c0,0,0,0.1,0,0.1c0.1,0.1,0.1,0.2,0.2,0.3
	c0,0,0.1,0,0.2-0.1c0,0,0.1-0.1,0.1-0.1c0,0,0.1-0.1,0.1-0.1c0-0.1,0-0.1,0.1-0.1c0,0-0.1-0.1-0.1-0.1c0,0-0.1-0.1-0.1-0.1
	c0,0-0.1,0-0.1,0c0,0-0.1,0-0.1,0c0,0,0-0.1,0-0.1c0,0-0.1,0.1-0.1,0.1c0,0,0,0-0.1-0.1c0.3-0.3,0.7-0.6,1-0.8c0,0-0.1-0.1-0.2-0.2
	c-0.2-0.3-0.3-0.3-0.3-0.4c-0.1-0.1-0.1-0.2-0.1-0.2c0-0.1,0-0.1-0.1-0.2c0,0,0,0-0.1,0C27.2,0.9,27.2,0.9,27.1,0.8
	C27.1,0.9,27.1,0.9,27.1,0.8z M2.4,18.2c0-0.1,0-0.1,0-0.2c0,0,0-0.1,0.1-0.2c0.1-0.1,0.1-0.1,0.2-0.1c0,0,0.1,0,0.2,0.1
	C3,17.9,3,18,2.9,18.1c0.2,0,0.4-0.1,0.6-0.2c0.2-0.1,0.4-0.2,0.5-0.2c0.2-0.1,0.3-0.2,0.5-0.4C4.7,17.2,4.9,17,5,16.9
	c0.1,0,0.3,0,0.6-0.1c0.1,0,0.3-0.1,0.7-0.2c0,0,0.3-0.1,0.8-0.2c0,0,0.1,0,0.3,0c0.1,0,0.1,0.1,0.1,0.1c0,0,0.1,0.1,0.1,0.2
	c0,0,0,0.1-0.1,0.2c0,0-0.1,0-0.1,0c-0.1,0-0.1-0.1-0.1-0.2c-0.2,0-0.4,0.1-0.6,0.1C6.3,16.9,6,17,5.8,17.2
	c-0.1,0.1-0.2,0.2-0.4,0.3c-0.1,0.1-0.2,0.2-0.3,0.3c-0.1,0-0.2,0-0.4,0c-0.1,0-0.3,0.1-0.3,0.1c-0.3,0.2-0.6,0.3-0.9,0.4
	c-0.2,0.1-0.4,0.1-0.6,0.1c-0.1,0-0.2,0-0.3,0C2.6,18.4,2.5,18.3,2.4,18.2z M6.5,18.9L9,21.4l-0.5,0.5l-2.5-2.5L6.5,18.9z
	 M11.6,20.6c0,0.1,0,0.2,0,0.3c-0.1,0.6-0.2,0.8-0.2,0.8c-0.1,0.4-0.2,0.5-0.2,0.7c-0.1,0.2-0.1,0.5-0.1,0.6
	c-0.1,0.1-0.3,0.3-0.5,0.5c-0.2,0.2-0.3,0.4-0.4,0.5c-0.1,0.1-0.2,0.3-0.2,0.5c-0.1,0.2-0.1,0.4-0.2,0.6c0.1-0.1,0.2-0.1,0.3,0
	c0.1,0.1,0.1,0.2,0.1,0.2c0,0,0,0.1-0.1,0.2c-0.1,0.1-0.2,0.1-0.2,0.1c0,0-0.1,0-0.2,0c-0.1-0.1-0.2-0.1-0.2-0.2c0-0.1,0-0.2,0-0.3
	c0-0.3,0.1-0.4,0.1-0.6c0.1-0.3,0.2-0.6,0.4-0.9c0-0.1,0.1-0.2,0.1-0.3c0-0.2,0-0.3,0-0.4c0.1-0.1,0.2-0.2,0.3-0.3
	c0.1-0.1,0.2-0.2,0.3-0.4c0.1-0.2,0.3-0.4,0.4-0.8c0.1-0.2,0.1-0.5,0.1-0.6c-0.1,0-0.2,0-0.2-0.1c0-0.1,0-0.1,0-0.1
	c0-0.1,0.1-0.1,0.2-0.1c0.1,0,0.2,0,0.2,0.1C11.5,20.5,11.6,20.5,11.6,20.6z M11.1,18.9l-1,1L8,17.8l1-1L11.1,18.9z M13.7,16.4l-1,1
	l-2.1-2.1l1-1L13.7,16.4z"/>
</svg>
