<svg width="76px" height="26px" viewBox="14914 11 76 26" version="1.1" xmlns="http://www.w3.org/2000/svg" xmlns:xlink="http://www.w3.org/1999/xlink">
    <g id="Group-13" stroke="none" stroke-width="1" fill="none" fill-rule="evenodd" transform="translate(14915.000000, 11.000000)">
        <path d="M34.2588597,3.668 L34.2588597,11 L32.2308597,11 L32.2308597,3.668 L29.6568597,3.668 L29.6568597,1.913 L36.8328597,1.913 L36.8328597,3.668 L34.2588597,3.668 Z M45.6858597,4.929 C45.6858597,6.38500728 45.1095322,7.32533121 43.9568597,7.75 L46.2578597,11 L43.7618597,11 L41.7468597,8.101 L40.3428597,8.101 L40.3428597,11 L38.3148597,11 L38.3148597,1.913 L41.7598597,1.913 C43.1725335,1.913 44.1800234,2.15133095 44.7823597,2.628 C45.3846961,3.10466905 45.6858597,3.87166138 45.6858597,4.929 L45.6858597,4.929 Z M43.2418597,6.008 C43.4931943,5.78266554 43.6188597,5.42516911 43.6188597,4.9355 C43.6188597,4.44583088 43.488861,4.11000091 43.2288597,3.928 C42.9688584,3.74599909 42.513863,3.655 41.8638597,3.655 L40.3428597,3.655 L40.3428597,6.346 L41.8248597,6.346 C42.5181965,6.346 42.9905251,6.23333446 43.2418597,6.008 L43.2418597,6.008 Z M54.2398597,11 L53.3948597,9.037 L49.5858597,9.037 L48.7408597,11 L46.5828597,11 L50.5088597,1.913 L52.4718597,1.913 L56.3978597,11 L54.2398597,11 Z M51.4968597,4.617 L50.3528597,7.256 L52.6278597,7.256 L51.4968597,4.617 Z M61.6238597,9.206 C62.6205314,9.206 63.4351899,8.81167061 64.0678597,8.023 L65.3678597,9.362 C64.3365212,10.5233391 63.1210334,11.104 61.7213597,11.104 C60.3216861,11.104 59.1690309,10.6620044 58.2633597,9.778 C57.3576885,8.89399558 56.9048597,7.7781734 56.9048597,6.4305 C56.9048597,5.0828266 57.3663551,3.95833784 58.2893597,3.057 C59.2123643,2.15566216 60.3411864,1.705 61.6758597,1.705 C63.1665339,1.705 64.4145214,2.27266099 65.4198597,3.408 L64.1588597,4.838 C63.5175232,4.04066268 62.7201978,3.642 61.7668597,3.642 C61.0041893,3.642 60.3520291,3.89116418 59.8103597,4.3895 C59.2686904,4.88783582 58.9978597,5.55949578 58.9978597,6.4045 C58.9978597,7.24950422 59.2535238,7.92766411 59.7648597,8.439 C60.2761956,8.95033589 60.8958561,9.206 61.6238597,9.206 L61.6238597,9.206 Z M66.9668597,1.913 L68.9948597,1.913 L68.9948597,5.644 L72.4268597,1.913 L74.9358597,1.913 L71.3218597,5.93 C71.6338613,6.3633355 72.2101889,7.17149408 73.0508597,8.3545 C73.8915306,9.53750592 74.5198577,10.4193304 74.9358597,11 L72.5698597,11 L69.9048597,7.412 L68.9948597,8.426 L68.9948597,11 L66.9668597,11 L66.9668597,1.913 Z M37.3528597,16.1025 C38.2195307,16.895504 38.6528597,17.9983263 38.6528597,19.411 C38.6528597,20.8236737 38.230364,21.9416626 37.3853597,22.765 C36.5403555,23.5883374 35.2512017,24 33.5178597,24 L30.4108597,24 L30.4108597,14.913 L33.6218597,14.913 C35.2425345,14.913 36.4861887,15.309496 37.3528597,16.1025 L37.3528597,16.1025 Z M35.8643597,21.504 C36.3626956,21.0359977 36.6118597,20.3556711 36.6118597,19.463 C36.6118597,18.5703289 36.3626956,17.8835024 35.8643597,17.4025 C35.3660239,16.9214976 34.6011982,16.681 33.5698597,16.681 L32.4388597,16.681 L32.4388597,22.206 L33.7258597,22.206 C34.6531977,22.206 35.3660239,21.9720023 35.8643597,21.504 L35.8643597,21.504 Z M46.7648597,14.913 L48.7928597,14.913 L48.7928597,24 L46.7648597,24 L42.4358597,18.306 L42.4358597,24 L40.4078597,24 L40.4078597,14.913 L42.3058597,14.913 L46.7648597,20.763 L46.7648597,14.913 Z M57.5028597,24 L56.6578597,22.037 L52.8488597,22.037 L52.0038597,24 L49.8458597,24 L53.7718597,14.913 L55.7348597,14.913 L59.6608597,24 L57.5028597,24 Z M54.7598597,17.617 L53.6158597,20.256 L55.8908597,20.256 L54.7598597,17.617 Z" id="TRACK-DNA" fill="#000000" transform="translate(52.296360, 12.852500) rotate(-360.000000) translate(-52.296360, -12.852500) "></path>
        <g id="LOGO">
            <ellipse id="Oval-3-Copy" fill="#000000" transform="translate(12.297170, 12.742857) rotate(-360.000000) translate(-12.297170, -12.742857) " cx="12.2971698" cy="12.7428571" rx="12.2971698" ry="12.2571429"></ellipse>
            <ellipse id="Oval-3" fill="#FEFE45" transform="translate(12.406966, 12.852296) rotate(-360.000000) translate(-12.406966, -12.852296) " cx="12.406966" cy="12.8522959" rx="9.33267352" ry="9.30229592"></ellipse>
            <ellipse id="Oval-4" fill="#000000" transform="translate(12.297170, 12.961735) rotate(-360.000000) translate(-12.297170, -12.961735) " cx="12.2971698" cy="12.9617347" rx="3.95266173" ry="3.93979592"></ellipse>
        </g>
    </g>
</svg>
