<svg width="24px" height="29px" viewBox="29 0 24 29" version="1.1" xmlns="http://www.w3.org/2000/svg" xmlns:xlink="http://www.w3.org/1999/xlink">
    <defs></defs>
    <g id="Group" stroke="none" stroke-width="1" fill="none" fill-rule="evenodd" transform="translate(29.000000, 0.000000)">
        <path d="M17.7160909,17.8416 C15.3769091,17.8416 13.1498182,16.13332 12.4202727,13.77964 C11.484,10.76012 13.0336364,7.33656 15.7363636,6.45344 C16.185,6.30672 16.6546364,6.23224 17.133,6.23224 C19.4825455,6.23224 21.8187273,8.05168 22.5662727,10.46444 C23.4880909,13.43748 21.9433636,16.70872 19.1934545,17.60696 C18.717,17.76264 18.2200909,17.8416 17.7160909,17.8416 L17.7160909,17.8416 Z M17.133,7.18396 C16.7503636,7.18396 16.3750909,7.24332 16.0172727,7.36008 C13.8242727,8.07688 12.531,10.99896 13.3033636,13.49096 C13.9137273,15.4602 15.7696364,16.88988 17.7160909,16.88988 C18.1243636,16.88988 18.5271818,16.82576 18.9125455,16.69976 C21.1442727,15.97064 22.4391818,13.19192 21.6831818,10.75312 C21.0523636,8.71836 19.0966364,7.18396 17.133,7.18396 L17.133,7.18396 Z" id="Shape" fill="#000000"></path>
        <path d="M13.8482727,15.64444 C13.6810909,15.64444 13.5196364,15.5512 13.4367273,15.38824 C13.3183636,15.15528 13.407,14.868 13.6339091,14.74648 C17.9972727,12.41352 22.1260909,11.93696 22.2995455,11.91764 C22.5518182,11.88964 22.7822727,12.07864 22.8098182,12.33988 C22.8370909,12.60112 22.6532727,12.83576 22.3985455,12.86404 C22.3579091,12.8688 18.2634545,13.34424 14.0618182,15.5904 C13.9939091,15.62736 13.9205455,15.64444 13.8482727,15.64444 L13.8482727,15.64444 Z" id="Shape" fill="#000000"></path>
        <path d="M12.7246364,12.31412 C12.5574545,12.31412 12.396,12.22088 12.3130909,12.05792 C12.1947273,11.82468 12.2833636,11.5374 12.5102727,11.41588 C16.8736364,9.0832 21.0021818,8.60664 21.1759091,8.5876 C21.4303636,8.56128 21.6589091,8.7486 21.6861818,9.00984 C21.7134545,9.27108 21.5296364,9.50572 21.2749091,9.534 C21.2342727,9.53876 17.1400909,10.0142 12.9384545,12.26036 C12.87,12.29676 12.7969091,12.31412 12.7246364,12.31412 L12.7246364,12.31412 Z" id="Shape" fill="#000000"></path>
        <path d="M6.28390909,11.60936 L6.28390909,11.60936 C5.78018182,11.60936 5.283,11.53068 4.80654545,11.375 C2.05663636,10.4762 0.511636364,7.20524 1.43290909,4.23276 C2.18072727,1.81972 4.51690909,0 6.86672727,0 C7.34481818,0 7.815,0.07448 8.26336364,0.2212 C10.9658182,1.10376 12.5157273,4.52732 11.58,7.54712 C10.8504545,9.9008 8.62309091,11.60936 6.28390909,11.60936 L6.28390909,11.60936 Z M6.86672727,0.95172 C4.90336364,0.95172 2.94709091,2.48612 2.31654545,4.52116 C1.56081818,6.95968 2.85572727,9.7384 5.088,10.4678 C5.47336364,10.5938 5.87563636,10.65764 6.28390909,10.65764 C8.23036364,10.65764 10.0862727,9.22824 10.6969091,7.25844 C11.4687273,4.76616 10.1751818,1.84408 7.98245455,1.12756 C7.62463636,1.01108 7.24936364,0.95172 6.86672727,0.95172 L6.86672727,0.95172 Z" id="Shape" fill="#000000"></path>
        <path d="M21.2593636,28 C20.8778182,28 20.5227273,27.74884 20.4010909,27.35628 L17.5096364,17.49524 C17.4357273,17.2438 17.5745455,16.97808 17.8197273,16.90248 C18.0651818,16.82688 18.3237273,16.9694 18.3970909,17.22112 L21.2770909,27.041 L22.8035455,26.54204 L19.6254545,16.81848 C19.5439091,16.56928 19.6748182,16.29936 19.9175455,16.21592 C20.1602727,16.1322 20.4231818,16.2666 20.5041818,16.5158 L23.6929091,26.27324 C23.7679091,26.51544 23.7471818,26.76576 23.637,26.98472 C23.5265455,27.20396 23.3394545,27.3658 23.1100909,27.44056 L21.5312727,27.9566 C21.441,27.986 21.3493636,28 21.2593636,28 L21.2593636,28 Z" id="Shape" fill="#000000"></path>
        <path d="M10.1514545,9.41192 C10.0794545,9.41192 10.0063636,9.39428 9.93790909,9.35816 C5.73627273,7.11228 1.64209091,6.63628 1.60118182,6.6318 C1.34672727,6.60352 1.16290909,6.36916 1.19018182,6.10764 C1.21772727,5.84668 1.44545455,5.65936 1.70072727,5.68568 C1.87418182,5.70472 6.00272727,6.18156 10.3660909,8.51424 C10.593,8.63548 10.6813636,8.92276 10.5632727,9.156 C10.4803636,9.31868 10.3186364,9.41192 10.1514545,9.41192 L10.1514545,9.41192 Z" id="Shape" fill="#000000"></path>
        <path d="M11.2748182,6.08216 C11.2025455,6.08216 11.1294545,6.06452 11.0612727,6.0284 C6.85990909,3.78252 2.76572727,3.30652 2.72509091,3.30204 C2.47063636,3.27376 2.28654545,3.0394 2.31409091,2.77816 C2.34163636,2.51692 2.56990909,2.32848 2.82436364,2.35592 C2.99809091,2.37496 7.12636364,2.8518 11.4894545,5.1842 C11.7166364,5.30572 11.8047273,5.593 11.6869091,5.82624 C11.6037273,5.98892 11.442,6.08216 11.2748182,6.08216 L11.2748182,6.08216 Z" id="Shape" fill="#000000"></path>
        <path d="M2.74281818,21.76832 C2.65090909,21.76832 2.55872727,21.75376 2.469,21.72464 L0.889636364,21.2086 C0.660545455,21.13356 0.473454545,20.97172 0.363,20.75276 C0.252818182,20.53352 0.232090909,20.2832 0.305181818,20.048 L3.49554545,10.28384 C3.57709091,10.03464 3.83972727,9.90052 4.08218182,9.98424 C4.32518182,10.06796 4.45581818,10.3376 4.37427273,10.58652 L1.19727273,20.31036 L2.72345455,20.80876 L5.60072727,10.99616 C5.67463636,10.745 5.93290909,10.60276 6.17809091,10.6778 C6.42327273,10.75368 6.56209091,11.01884 6.48818182,11.27056 L3.60109091,21.11732 C3.52636364,21.35952 3.36872727,21.55132 3.15490909,21.66472 C3.02536364,21.7336 2.88463636,21.76832 2.74281818,21.76832 L2.74281818,21.76832 Z" id="Shape" fill="#000000"></path>
    </g>
</svg>
