<!-- Generator: Adobe Illustrator 19.1.0, SVG Export Plug-In  -->
<svg version="1.1"
	 xmlns="http://www.w3.org/2000/svg" xmlns:xlink="http://www.w3.org/1999/xlink" xmlns:a="http://ns.adobe.com/AdobeSVGViewerExtensions/3.0/"
	 x="0px" y="0px" width="28px" height="28px" viewBox="0 0 28 28" style="enable-background:new 0 0 28 28;" xml:space="preserve">
<defs>
</defs>
<g>
	<path d="M5.2,11.4H2.6c-0.5,0-0.9,0.4-0.9,0.9v2.6c0,0.5,0.4,0.9,0.9,0.9h2.6c0.5,0,0.9-0.4,0.9-0.9v-2.6
		C6.1,11.8,5.7,11.4,5.2,11.4z M5.7,14.9c0,0.2-0.2,0.4-0.4,0.4H2.6c-0.2,0-0.4-0.2-0.4-0.4v-2.6c0-0.2,0.2-0.4,0.4-0.4h2.6
		c0.2,0,0.4,0.2,0.4,0.4V14.9z"/>
	<path d="M25.4,10.5h-0.4V6.6c0-0.2-0.2-0.4-0.4-0.4s-0.4,0.2-0.4,0.4v3.9h-0.4c-0.2,0-0.4,0.2-0.4,0.4s0.2,0.4,0.4,0.4h0.4v3.9
		c0,0.2,0.2,0.4,0.4,0.4s0.4-0.2,0.4-0.4v-3.9h0.4c0.2,0,0.4-0.2,0.4-0.4S25.6,10.5,25.4,10.5z"/>
	<path d="M7.9,3.1c0-0.2-0.2-0.4-0.4-0.4H6.6c-0.2,0-0.4,0.2-0.4,0.4s0.2,0.4,0.4,0.4h0.9C7.7,3.5,7.9,3.3,7.9,3.1z"/>
	<path d="M5.2,6.1H2.6C2.1,6.1,1.8,6.5,1.8,7v2.6c0,0.5,0.4,0.9,0.9,0.9h2.6c0.5,0,0.9-0.4,0.9-0.9V7C6.1,6.5,5.7,6.1,5.2,6.1z
		 M5.7,9.6c0,0.2-0.2,0.4-0.4,0.4H2.6c-0.2,0-0.4-0.2-0.4-0.4V7c0-0.2,0.2-0.4,0.4-0.4h2.6c0.2,0,0.4,0.2,0.4,0.4V9.6z"/>
	<path d="M5.2,16.6H2.6c-0.5,0-0.9,0.4-0.9,0.9v2.6c0,0.5,0.4,0.9,0.9,0.9h2.6c0.5,0,0.9-0.4,0.9-0.9v-2.6C6.1,17,5.7,16.6,5.2,16.6
		z M5.7,20.1c0,0.2-0.2,0.4-0.4,0.4H2.6c-0.2,0-0.4-0.2-0.4-0.4v-2.6c0-0.2,0.2-0.4,0.4-0.4h2.6c0.2,0,0.4,0.2,0.4,0.4V20.1z"/>
	<circle cx="4.8" cy="3.1" r="0.4"/>
	<path d="M25.4,21h-0.4v-3.9c0-0.2-0.2-0.4-0.4-0.4s-0.4,0.2-0.4,0.4V21h-0.4c-0.2,0-0.4,0.2-0.4,0.4s0.2,0.4,0.4,0.4h0.4v3.9
		c0,0.2,0.2,0.4,0.4,0.4s0.4-0.2,0.4-0.4v-3.9h0.4c0.2,0,0.4-0.2,0.4-0.4S25.6,21,25.4,21z"/>
	<path d="M25.8,0H2.2C1,0,0,1,0,2.2v23.6C0,27,1,28,2.2,28h23.6c1.2,0,2.2-1,2.2-2.2V2.2C28,1,27,0,25.8,0z M27.1,25.8
		c0,0.7-0.6,1.3-1.3,1.3H2.2c-0.7,0-1.3-0.6-1.3-1.3V2.2c0-0.7,0.6-1.3,1.3-1.3h23.6c0.7,0,1.3,0.6,1.3,1.3V25.8z"/>
	<path d="M24.1,3.5h0.9c0.2,0,0.4-0.2,0.4-0.4s-0.2-0.4-0.4-0.4h-0.9c-0.2,0-0.4,0.2-0.4,0.4S23.8,3.5,24.1,3.5z"/>
	<path d="M24.1,5.2h0.9c0.2,0,0.4-0.2,0.4-0.4s-0.2-0.4-0.4-0.4h-0.9c-0.2,0-0.4,0.2-0.4,0.4S23.8,5.2,24.1,5.2z"/>
	<circle cx="3.1" cy="3.1" r="0.4"/>
	<path d="M5.2,21.9H2.6c-0.5,0-0.9,0.4-0.9,0.9v2.6c0,0.5,0.4,0.9,0.9,0.9h2.6c0.5,0,0.9-0.4,0.9-0.9v-2.6
		C6.1,22.3,5.7,21.9,5.2,21.9z M5.7,25.4c0,0.2-0.2,0.4-0.4,0.4H2.6c-0.2,0-0.4-0.2-0.4-0.4v-2.6c0-0.2,0.2-0.4,0.4-0.4h2.6
		c0.2,0,0.4,0.2,0.4,0.4V25.4z"/>
	<path d="M21,6.1h-2.6c-0.5,0-0.9,0.4-0.9,0.9v2.6c0,0.5,0.4,0.9,0.9,0.9H21c0.5,0,0.9-0.4,0.9-0.9V7C21.9,6.5,21.5,6.1,21,6.1z
		 M21.4,9.6c0,0.2-0.2,0.4-0.4,0.4h-2.6c-0.2,0-0.4-0.2-0.4-0.4V7c0-0.2,0.2-0.4,0.4-0.4H21c0.2,0,0.4,0.2,0.4,0.4V9.6z"/>
	<path d="M15.8,21.9h-2.6c-0.5,0-0.9,0.4-0.9,0.9v2.6c0,0.5,0.4,0.9,0.9,0.9h2.6c0.5,0,0.9-0.4,0.9-0.9v-2.6
		C16.6,22.3,16.2,21.9,15.8,21.9z M16.2,25.4c0,0.2-0.2,0.4-0.4,0.4h-2.6c-0.2,0-0.4-0.2-0.4-0.4v-2.6c0-0.2,0.2-0.4,0.4-0.4h2.6
		c0.2,0,0.4,0.2,0.4,0.4V25.4z"/>
	<path d="M15.8,11.4h-2.6c-0.5,0-0.9,0.4-0.9,0.9v2.6c0,0.5,0.4,0.9,0.9,0.9h2.6c0.5,0,0.9-0.4,0.9-0.9v-2.6
		C16.6,11.8,16.2,11.4,15.8,11.4z M16.2,14.9c0,0.2-0.2,0.4-0.4,0.4h-2.6c-0.2,0-0.4-0.2-0.4-0.4v-2.6c0-0.2,0.2-0.4,0.4-0.4h2.6
		c0.2,0,0.4,0.2,0.4,0.4V14.9z"/>
	<path d="M21,11.4h-2.6c-0.5,0-0.9,0.4-0.9,0.9v2.6c0,0.5,0.4,0.9,0.9,0.9H21c0.5,0,0.9-0.4,0.9-0.9v-2.6
		C21.9,11.8,21.5,11.4,21,11.4z M21.4,14.9c0,0.2-0.2,0.4-0.4,0.4h-2.6c-0.2,0-0.4-0.2-0.4-0.4v-2.6c0-0.2,0.2-0.4,0.4-0.4H21
		c0.2,0,0.4,0.2,0.4,0.4V14.9z"/>
	<path d="M15.8,16.6h-2.6c-0.5,0-0.9,0.4-0.9,0.9v2.6c0,0.5,0.4,0.9,0.9,0.9h2.6c0.5,0,0.9-0.4,0.9-0.9v-2.6
		C16.6,17,16.2,16.6,15.8,16.6z M16.2,20.1c0,0.2-0.2,0.4-0.4,0.4h-2.6c-0.2,0-0.4-0.2-0.4-0.4v-2.6c0-0.2,0.2-0.4,0.4-0.4h2.6
		c0.2,0,0.4,0.2,0.4,0.4V20.1z"/>
	<path d="M10.5,21.9H7.9c-0.5,0-0.9,0.4-0.9,0.9v2.6c0,0.5,0.4,0.9,0.9,0.9h2.6c0.5,0,0.9-0.4,0.9-0.9v-2.6
		C11.4,22.3,11,21.9,10.5,21.9z M10.9,25.4c0,0.2-0.2,0.4-0.4,0.4H7.9c-0.2,0-0.4-0.2-0.4-0.4v-2.6c0-0.2,0.2-0.4,0.4-0.4h2.6
		c0.2,0,0.4,0.2,0.4,0.4V25.4z"/>
	<path d="M21,16.6h-2.6c-0.5,0-0.9,0.4-0.9,0.9v2.6c0,0.5,0.4,0.9,0.9,0.9H21c0.5,0,0.9-0.4,0.9-0.9v-2.6C21.9,17,21.5,16.6,21,16.6
		z M21.4,20.1c0,0.2-0.2,0.4-0.4,0.4h-2.6c-0.2,0-0.4-0.2-0.4-0.4v-2.6c0-0.2,0.2-0.4,0.4-0.4H21c0.2,0,0.4,0.2,0.4,0.4V20.1z"/>
	<path d="M15.8,6.1h-2.6c-0.5,0-0.9,0.4-0.9,0.9v2.6c0,0.5,0.4,0.9,0.9,0.9h2.6c0.5,0,0.9-0.4,0.9-0.9V7C16.6,6.5,16.2,6.1,15.8,6.1
		z M16.2,9.6c0,0.2-0.2,0.4-0.4,0.4h-2.6c-0.2,0-0.4-0.2-0.4-0.4V7c0-0.2,0.2-0.4,0.4-0.4h2.6c0.2,0,0.4,0.2,0.4,0.4V9.6z"/>
	<path d="M10.5,16.6H7.9C7.4,16.6,7,17,7,17.5v2.6C7,20.6,7.4,21,7.9,21h2.6c0.5,0,0.9-0.4,0.9-0.9v-2.6C11.4,17,11,16.6,10.5,16.6z
		 M10.9,20.1c0,0.2-0.2,0.4-0.4,0.4H7.9c-0.2,0-0.4-0.2-0.4-0.4v-2.6c0-0.2,0.2-0.4,0.4-0.4h2.6c0.2,0,0.4,0.2,0.4,0.4V20.1z"/>
	<path d="M22.3,4.4h-0.9c-0.2,0-0.4,0.2-0.4,0.4s0.2,0.4,0.4,0.4h0.9c0.2,0,0.4-0.2,0.4-0.4S22.6,4.4,22.3,4.4z"/>
	<path d="M10.5,6.1H7.9C7.4,6.1,7,6.5,7,7v2.6c0,0.5,0.4,0.9,0.9,0.9h2.6c0.5,0,0.9-0.4,0.9-0.9V7C11.4,6.5,11,6.1,10.5,6.1z
		 M10.9,9.6c0,0.2-0.2,0.4-0.4,0.4H7.9c-0.2,0-0.4-0.2-0.4-0.4V7c0-0.2,0.2-0.4,0.4-0.4h2.6c0.2,0,0.4,0.2,0.4,0.4V9.6z"/>
	<path d="M22.3,2.6h-0.9c-0.2,0-0.4,0.2-0.4,0.4s0.2,0.4,0.4,0.4h0.9c0.2,0,0.4-0.2,0.4-0.4S22.6,2.6,22.3,2.6z"/>
	<path d="M10.5,11.4H7.9c-0.5,0-0.9,0.4-0.9,0.9v2.6c0,0.5,0.4,0.9,0.9,0.9h2.6c0.5,0,0.9-0.4,0.9-0.9v-2.6
		C11.4,11.8,11,11.4,10.5,11.4z M10.9,14.9c0,0.2-0.2,0.4-0.4,0.4H7.9c-0.2,0-0.4-0.2-0.4-0.4v-2.6c0-0.2,0.2-0.4,0.4-0.4h2.6
		c0.2,0,0.4,0.2,0.4,0.4V14.9z"/>
	<path d="M21,21.9h-2.6c-0.5,0-0.9,0.4-0.9,0.9v2.6c0,0.5,0.4,0.9,0.9,0.9H21c0.5,0,0.9-0.4,0.9-0.9v-2.6
		C21.9,22.3,21.5,21.9,21,21.9z M21.4,25.4c0,0.2-0.2,0.4-0.4,0.4h-2.6c-0.2,0-0.4-0.2-0.4-0.4v-2.6c0-0.2,0.2-0.4,0.4-0.4H21
		c0.2,0,0.4,0.2,0.4,0.4V25.4z"/>
</g>
</svg>
