<!-- Generator: Adobe Illustrator 19.1.0, SVG Export Plug-In  -->
<svg version="1.1"
	 xmlns="http://www.w3.org/2000/svg" xmlns:xlink="http://www.w3.org/1999/xlink" xmlns:a="http://ns.adobe.com/AdobeSVGViewerExtensions/3.0/"
	 x="0px" y="0px" width="28px" height="28px" viewBox="0 0 28 28" style="enable-background:new 0 0 28 28;" xml:space="preserve">
<defs>
</defs>
<g>
	<path d="M11.7,20.8c0,0.6,0.2,1.1,0.6,1.4c0.4,0.4,0.9,0.6,1.4,0.6c0.6,0,1.1-0.2,1.4-0.6c0.4-0.4,0.6-0.9,0.6-1.4
		c0-0.6-0.2-1.1-0.6-1.4c-0.4-0.4-0.9-0.6-1.4-0.6c-0.6,0-1,0.2-1.4,0.6C11.8,19.8,11.7,20.3,11.7,20.8z M12.3,16.9H15
		c-0.1-0.5,0-0.8,0.1-1.3c0.2-0.4,0.4-0.9,0.7-1.3c0.3-0.4,0.6-0.8,0.9-1.1c0.3-0.4,0.7-0.7,1-1.1c0.3-0.4,0.6-0.8,0.8-1.2
		c0.2-0.4,0.3-0.9,0.3-1.5c0-0.7-0.1-1.3-0.4-1.9c-0.2-0.5-0.6-1-1-1.3c-0.4-0.4-1-0.6-1.6-0.8c-0.6-0.2-1.3-0.3-2-0.3
		c-1,0-1.9,0.2-2.6,0.6c-0.8,0.4-1.5,0.9-2,1.6l1.7,1.5c0.4-0.4,0.8-0.7,1.2-1c0.5-0.2,0.9-0.4,1.5-0.4c0.7,0,1.2,0.2,1.6,0.6
		c0.4,0.4,0.6,0.9,0.6,1.5c0,0.4-0.1,0.8-0.3,1.1c-0.2,0.3-0.4,0.7-0.7,1c-0.3,0.3-0.6,0.7-0.9,1.1c-0.3,0.4-0.6,0.8-0.9,1.2
		c-0.3,0.4-0.5,0.9-0.6,1.4C12.3,15.9,12.2,16.2,12.3,16.9z M0,14c0,7.7,6.3,14,14,14c7.7,0,14-6.3,14-14S21.7,0,14,0
		C6.3,0,0,6.3,0,14z M2.6,14C2.6,7.7,7.7,2.6,14,2.6S25.4,7.7,25.4,14S20.3,25.4,14,25.4S2.6,20.3,2.6,14z"/>
</g>
</svg>
